<svg width="23" height="23" viewBox="0 0 23 23" fill="none" xmlns="http://www.w3.org/2000/svg">
<path fill-rule="evenodd" clip-rule="evenodd" d="M18.42 16.8876C18.33 16.8897 18.2398 16.8907 18.1494 16.8907C11.5222 16.8907 6.14972 11.3891 6.14972 4.60254C6.14972 4.50993 6.15072 4.41756 6.15272 4.32542C4.15571 5.96376 2.87707 8.48269 2.87707 11.3051C2.87707 16.2408 6.78431 20.242 11.6041 20.242C14.3603 20.242 16.8201 18.9326 18.42 16.8876ZM19.7487 14.5238C19.2283 14.6111 18.694 14.6565 18.1494 14.6565C12.7271 14.6565 8.33148 10.1552 8.33148 4.60254C8.33148 4.04482 8.37583 3.49772 8.4611 2.96471C8.60523 2.06387 8.86628 1.2033 9.22776 0.399902C8.28813 0.613673 7.39411 0.951545 6.56297 1.39585C3.07578 3.26003 0.695312 6.99791 0.695312 11.3051C0.695312 17.4747 5.57935 22.4762 11.6041 22.4762C15.8102 22.4762 19.4603 20.0385 21.2808 16.4675C21.7146 15.6164 22.0446 14.7009 22.2533 13.7387C21.4688 14.1089 20.6284 14.3762 19.7487 14.5238Z" fill="black"/>
</svg>
