<svg width="19" height="19" viewBox="0 0 19 19" fill="none" xmlns="http://www.w3.org/2000/svg">
<path d="M9.81725 18.3C4.85269 18.3 0.828125 14.2706 0.828125 9.30005C0.828125 4.32949 4.85269 0.300049 9.81725 0.300049C14.7818 0.300049 18.8064 4.32949 18.8064 9.30005C18.8009 14.2683 14.7795 18.2946 9.81725 18.3ZM2.62595 9.45485C2.66848 13.416 5.89898 16.5986 9.85548 16.5774C13.812 16.5561 17.0081 13.3388 17.0081 9.37745C17.0081 5.4161 13.812 2.19885 9.85548 2.17745C5.89898 2.15626 2.66848 5.33893 2.62595 9.30005V9.45485ZM11.6151 13.8H8.91833V10.2H8.01942V8.40005H10.7162V12H11.6151V13.8ZM10.7162 6.60005H8.91833V4.80005H10.7162V6.60005Z" fill="black"/>
</svg>
