<svg width="24" height="25" viewBox="0 0 24 25" fill="none" xmlns="http://www.w3.org/2000/svg">
<path d="M13.1951 24.3003H10.8571V20.7003H13.1951V24.3003ZM19.4658 21.6339L16.9863 19.0887L18.6393 17.3919L21.1199 19.9383L19.4681 21.6339H19.4658ZM4.58649 21.6339L2.93233 19.9371L5.41065 17.3907L7.06481 19.0875L4.58649 21.6327V21.6339ZM12.0261 18.3087C8.79375 18.3074 6.17432 15.6167 6.17518 12.2987C6.17604 8.98066 8.79687 6.29145 12.0292 6.29189C15.2616 6.29234 17.8817 8.98226 17.8817 12.3003C17.8785 15.6182 15.2584 18.3067 12.0261 18.3087ZM12.0261 8.69189C10.085 8.69322 8.51236 10.3093 8.51322 12.3019C8.51408 14.2944 10.0881 15.9091 12.0292 15.9087C13.9703 15.9083 15.5437 14.2928 15.5437 12.3003C15.5418 10.3073 13.9676 8.69255 12.0261 8.69189ZM23.7163 13.5003H20.2092V11.1003H23.7163V13.5003ZM3.84299 13.5003H0.335938V11.1003H3.84299V13.5003ZM18.6381 7.20989L16.9863 5.51189L19.4658 2.96549L21.1199 4.66349L18.6393 7.20869L18.6381 7.20989ZM5.41298 7.20989L2.93466 4.66469L4.58883 2.96789L7.06714 5.51429L5.41415 7.20869L5.41298 7.20989ZM13.1951 3.90029H10.8571V0.300293H13.1951V3.90029Z" fill="#FFAD00"/>
</svg>
