<svg width="140" height="22" viewBox="0 0 140 22" fill="none" xmlns="http://www.w3.org/2000/svg">
<g clip-path="url(#clip0_1_1502)">
<path fill-rule="evenodd" clip-rule="evenodd" d="M16.0836 0.399902H1.3267L0 5.57509H16.0836C16.7952 5.57509 17.4776 5.84771 17.9807 6.33298C18.4838 6.81825 18.7665 7.47641 18.7665 8.16269C18.7665 8.84896 18.4838 9.50712 17.9807 9.99239C17.4776 10.4777 16.7952 10.7503 16.0836 10.7503H0V21.0999H5.33506V15.9247H16.0836C18.2181 15.9247 20.2652 15.1069 21.7745 13.6512C23.2838 12.1954 24.1317 10.221 24.1317 8.16231C24.1317 6.10359 23.2838 4.12919 21.7745 2.67346C20.2652 1.21772 18.2181 0.399902 16.0836 0.399902V0.399902Z" fill="#FF4D23"/>
<path fill-rule="evenodd" clip-rule="evenodd" d="M37.4505 15.9247C36.0388 15.9082 34.6907 15.3558 33.6985 14.3871C32.7062 13.4184 32.1498 12.1116 32.1498 10.7499C32.1498 9.3882 32.7062 8.08136 33.6985 7.11268C34.6907 6.14401 36.0388 5.59156 37.4505 5.57509H49.5329L50.8463 0.399902H37.4301C34.5841 0.399902 31.8547 1.49035 29.8422 3.43135C27.8298 5.37235 26.6992 8.00491 26.6992 10.7499C26.6992 13.4949 27.8298 16.1275 29.8422 18.0685C31.8547 20.0095 34.5841 21.0999 37.4301 21.0999H49.5172L50.829 15.9247H37.4505Z" fill="#FF4D23"/>
<path fill-rule="evenodd" clip-rule="evenodd" d="M66.8129 0.399906H54.7259L53.4141 5.5751H66.8302C67.5402 5.56681 68.2449 5.69455 68.9034 5.95089C69.5618 6.20723 70.161 6.58709 70.6661 7.06844C71.1713 7.54978 71.5723 8.12305 71.846 8.755C72.1198 9.38695 72.2607 10.065 72.2607 10.7499C72.2607 11.4348 72.1198 12.1129 71.846 12.7448C71.5723 13.3768 71.1713 13.95 70.6661 14.4314C70.161 14.9127 69.5618 15.2926 68.9034 15.5489C68.2449 15.8053 67.5402 15.933 66.8302 15.9247H58.7797V8.11842H53.4141V21.0999H66.8302C68.2394 21.0988 69.6346 20.83 70.9361 20.3089C72.2376 19.7877 73.4199 19.0244 74.4155 18.0626C75.4112 17.1007 76.2007 15.9591 76.7389 14.703C77.2772 13.4468 77.5536 12.1008 77.5525 10.7416C77.5513 9.3824 77.2726 8.03674 76.7323 6.78144C76.192 5.52614 75.4006 4.38578 74.4034 3.42546C73.4061 2.46515 72.2225 1.70369 70.9201 1.18457C69.6177 0.665441 68.2221 0.398813 66.8129 0.399906Z" fill="#1C5A9D"/>
<path fill-rule="evenodd" clip-rule="evenodd" d="M98.8021 5.57509H110.884L112.198 0.399902H98.7817C95.9357 0.399902 93.2062 1.49035 91.1938 3.43135C89.1814 5.37235 88.0508 8.00491 88.0508 10.7499C88.0508 13.4949 89.1814 16.1275 91.1938 18.0685C93.2062 20.0095 95.9357 21.0999 98.7817 21.0999H112.198V8.16004H100.111L98.8021 13.3398H106.85V15.927H98.8021C97.3904 15.9105 96.0423 15.3581 95.05 14.3894C94.0578 13.4207 93.5013 12.1139 93.5013 10.7522C93.5013 9.39047 94.0578 8.08363 95.05 7.11495C96.0423 6.14628 97.3904 5.59383 98.8021 5.57736V5.57509Z" fill="#1C5A9D"/>
<path d="M85.4868 0.399902H80.1211V21.0999H85.4868V0.399902Z" fill="#1C5A9D"/>
<path d="M125.482 17.9658C123.501 17.9658 121.602 17.2071 120.202 15.8565C118.802 14.5059 118.015 12.6742 118.015 10.7642C118.015 8.85417 118.802 7.02239 120.202 5.67182C121.602 4.32124 123.501 3.56249 125.482 3.56249H133.381C133.985 3.56249 134.565 3.79418 134.993 4.20657C135.42 4.61897 135.661 5.1783 135.661 5.76151V12.9632H133.604V5.43159H125.482C124.755 5.43159 124.036 5.56958 123.365 5.83768C122.694 6.10578 122.084 6.49874 121.57 6.99413C121.057 7.48952 120.649 8.07763 120.371 8.72488C120.093 9.37214 119.95 10.0659 119.95 10.7664C119.95 11.467 120.093 12.1607 120.371 12.808C120.649 13.4553 121.057 14.0434 121.57 14.5388C122.084 15.0341 122.694 15.4271 123.365 15.6952C124.036 15.9633 124.755 16.1013 125.482 16.1013H138.91V5.74789C138.908 4.33396 138.325 2.97845 137.289 1.97864C136.252 0.978836 134.847 0.416353 133.381 0.414551H125.482C122.64 0.414551 119.914 1.50348 117.904 3.44178C115.895 5.38009 114.766 8.009 114.766 10.7502C114.766 13.4914 115.895 16.1203 117.904 18.0586C119.914 19.9969 122.64 21.0858 125.482 21.0858H138.09L138.895 17.9522H125.479L125.482 17.9658ZM130.355 12.9488H125.482C124.877 12.9488 124.297 12.7171 123.869 12.3046C123.442 11.8922 123.201 11.3327 123.201 10.7494C123.201 10.1661 123.442 9.60667 123.869 9.19421C124.297 8.78174 124.877 8.55002 125.482 8.55002H130.355V12.9488Z" fill="#1C5A9D"/>
</g>
<defs>
<clipPath id="clip0_1_1502">
<rect width="139.5" height="20.7" fill="white" transform="translate(0 0.399902)"/>
</clipPath>
</defs>
</svg>
