<svg width="110" height="17" viewBox="0 0 110 17" fill="none" xmlns="http://www.w3.org/2000/svg">
<path fill-rule="evenodd" clip-rule="evenodd" d="M12.7361 0H1.05058L0 4.25015H12.7361C13.2996 4.25015 13.8399 4.47405 14.2383 4.87258C14.6367 5.27111 14.8606 5.81163 14.8606 6.37523C14.8606 6.93884 14.6367 7.47936 14.2383 7.87789C13.8399 8.27642 13.2996 8.50031 12.7361 8.50031H0V17H4.22467V12.7498H12.7361C14.4264 12.7498 16.0474 12.0782 17.2425 10.8827C18.4377 9.68714 19.1092 8.06566 19.1092 6.37492C19.1092 4.68419 18.4377 3.0627 17.2425 1.86717C16.0474 0.671642 14.4264 0 12.7361 0V0Z" fill="#EEEEEE"/>
<path fill-rule="evenodd" clip-rule="evenodd" d="M29.6559 12.7498C28.538 12.7363 27.4704 12.2826 26.6847 11.4871C25.899 10.6916 25.4583 9.61831 25.4583 8.5C25.4583 7.38169 25.899 6.30844 26.6847 5.51291C27.4704 4.71738 28.538 4.26368 29.6559 4.25015H39.2235L40.2635 0H29.6397C27.386 0 25.2247 0.895533 23.6311 2.48959C22.0375 4.08365 21.1422 6.24566 21.1422 8.5C21.1422 10.7543 22.0375 12.9163 23.6311 14.5104C25.2247 16.1045 27.386 17 29.6397 17H39.2111L40.2498 12.7498H29.6559Z" fill="#EEEEEE"/>
<path fill-rule="evenodd" clip-rule="evenodd" d="M52.9069 2.74931e-06H43.3355L42.2968 4.25016H52.9205C53.4828 4.24336 54.0408 4.34826 54.5622 4.55878C55.0837 4.76931 55.5581 5.08126 55.9581 5.47657C56.3581 5.87188 56.6757 6.34268 56.8925 6.86167C57.1092 7.38067 57.2208 7.93754 57.2208 8.5C57.2208 9.06246 57.1092 9.61933 56.8925 10.1383C56.6757 10.6573 56.3581 11.1281 55.9581 11.5234C55.5581 11.9187 55.0837 12.2307 54.5622 12.4412C54.0408 12.6517 53.4828 12.7566 52.9205 12.7498H46.5456V6.33888H42.2968V17H52.9205C54.0365 16.9991 55.1413 16.7784 56.1719 16.3504C57.2025 15.9224 58.1387 15.2955 58.9272 14.5056C59.7156 13.7156 60.3408 12.7781 60.767 11.7465C61.1932 10.7149 61.4121 9.6094 61.4112 8.49317C61.4103 7.37693 61.1896 6.2718 60.7617 5.24088C60.3339 4.20995 59.7072 3.27342 58.9175 2.48476C58.1278 1.6961 57.1905 1.07075 56.1592 0.644411C55.1279 0.218075 54.0228 -0.000894996 52.9069 2.74931e-06Z" fill="#EEEEEE"/>
<path fill-rule="evenodd" clip-rule="evenodd" d="M78.2398 4.25015H87.8075L88.8474 0H78.2237C75.97 0 73.8086 0.895533 72.215 2.48959C70.6215 4.08365 69.7262 6.24566 69.7262 8.5C69.7262 10.7543 70.6215 12.9163 72.215 14.5104C73.8086 16.1045 75.97 17 78.2237 17H88.8474V6.37306H79.2761L78.2398 10.6269H84.6129V12.7517H78.2398C77.1219 12.7382 76.0544 12.2845 75.2687 11.489C74.4829 10.6934 74.0423 9.62017 74.0423 8.50186C74.0423 7.38355 74.4829 6.31031 75.2687 5.51478C76.0544 4.71924 77.1219 4.26554 78.2398 4.25202V4.25015Z" fill="#EEEEEE"/>
<path d="M67.6931 0H63.4442V17H67.6931V0Z" fill="#EEEEEE"/>
<path d="M99.3663 14.4253C97.7982 14.4253 96.2942 13.8022 95.1854 12.693C94.0766 11.5839 93.4536 10.0795 93.4536 8.51092C93.4536 6.94232 94.0766 5.43796 95.1854 4.32879C96.2942 3.21962 97.7982 2.5965 99.3663 2.5965H105.621C106.1 2.5965 106.559 2.78677 106.898 3.12545C107.236 3.46413 107.427 3.92349 107.427 4.40246V10.3169H105.798V4.1315H99.3663C98.7911 4.1315 98.2215 4.24483 97.6901 4.46501C97.1587 4.68519 96.6759 5.00791 96.2692 5.41475C95.8625 5.82159 95.5398 6.30458 95.3197 6.83614C95.0996 7.3677 94.9863 7.93742 94.9863 8.51278C94.9863 9.08814 95.0996 9.65786 95.3197 10.1894C95.5398 10.721 95.8625 11.204 96.2692 11.6108C96.6759 12.0177 97.1587 12.3404 97.6901 12.5606C98.2215 12.7807 98.7911 12.8941 99.3663 12.8941H110V4.39127C109.999 3.23007 109.537 2.11685 108.716 1.29575C107.895 0.474653 106.782 0.0127104 105.621 0.0112305H99.3663C97.1158 0.0112305 94.9574 0.905519 93.366 2.49736C91.7746 4.08921 90.8806 6.24821 90.8806 8.49942C90.8806 10.7506 91.7746 12.9096 93.366 14.5015C94.9574 16.0933 97.1158 16.9876 99.3663 16.9876H109.351L109.988 14.4142H99.3644L99.3663 14.4253ZM103.226 10.3051H99.3663C98.8874 10.3051 98.4281 10.1148 98.0894 9.77602C97.7508 9.43728 97.5606 8.97785 97.5606 8.4988C97.5606 8.01975 97.7508 7.56032 98.0894 7.22157C98.4281 6.88283 98.8874 6.69253 99.3663 6.69253H103.226V10.3051Z" fill="#EEEEEE"/>
</svg>
