<svg width="18" height="17" viewBox="0 0 18 17" fill="none" xmlns="http://www.w3.org/2000/svg">
<path d="M15.5992 16.607L9.9009 10.891C7.36599 12.6985 3.87297 12.2564 1.86527 9.87395C-0.142421 7.49153 0.00499889 3.96361 2.20441 1.75802C4.40324 -0.448534 7.92122 -0.597024 10.2971 1.41644C12.673 3.42989 13.1141 6.93347 11.3118 9.47602L17.0101 15.192L15.6002 16.606L15.5992 16.607ZM6.43404 2.00001C4.54327 1.99958 2.91203 3.3307 2.52794 5.18745C2.14384 7.04421 3.11246 8.91629 4.84736 9.67026C6.58225 10.4242 8.60659 9.85285 9.69475 8.30207C10.7829 6.75129 10.6358 4.64734 9.34254 3.26402L9.94577 3.86402L9.26576 3.18402L9.2538 3.17202C8.50777 2.4192 7.49234 1.99715 6.43404 2.00001Z" fill="#C4C4C4"/>
</svg>
