<svg width="19" height="22" viewBox="0 0 19 22" fill="none" xmlns="http://www.w3.org/2000/svg">
<path d="M3.83505 6.39941C3.83505 3.39637 6.277 0.961914 9.2893 0.961914C12.3016 0.961914 14.7436 3.39637 14.7436 6.39941C14.7436 9.40246 12.3016 11.8369 9.2893 11.8369C6.277 11.8369 3.83505 9.40246 3.83505 6.39941ZM9.2893 9.66191C11.0967 9.66191 12.5619 8.20124 12.5619 6.39941C12.5619 4.59759 11.0967 3.13691 9.2893 3.13691C7.48192 3.13691 6.01675 4.59759 6.01675 6.39941C6.01675 8.20124 7.48192 9.66191 9.2893 9.66191Z" fill="white"/>
<path d="M3.11852 15.4726C1.48193 17.1042 0.5625 19.317 0.5625 21.6244H2.7442C2.7442 19.8939 3.43377 18.2342 4.66122 17.0105C5.88866 15.7869 7.55343 15.0994 9.2893 15.0994C11.0252 15.0994 12.6899 15.7869 13.9174 17.0105C15.1448 18.2342 15.8344 19.8939 15.8344 21.6244H18.0161C18.0161 19.317 17.0967 17.1042 15.4601 15.4726C13.8235 13.841 11.6038 12.9244 9.2893 12.9244C6.97481 12.9244 4.75511 13.841 3.11852 15.4726Z" fill="white"/>
</svg>
