<svg width="34" height="34" viewBox="0 0 34 34" fill="none" xmlns="http://www.w3.org/2000/svg">
<circle cx="16.9534" cy="16.8607" r="16.3607" stroke="#595959"/>
<path d="M16.9554 24.1746C14.9654 24.1746 14.7308 24.1641 13.9541 24.1301C13.3485 24.1102 12.7507 23.9871 12.1865 23.7661C11.2104 23.3862 10.4385 22.614 10.0589 21.6377C9.84643 21.0714 9.73181 20.4731 9.71999 19.8684C9.67468 19.0934 9.67468 18.8394 9.67468 16.8647C9.67468 14.869 9.6852 14.636 9.71999 13.8634C9.73207 13.2596 9.84669 12.6621 10.0589 12.0966C10.4381 11.119 11.2112 10.3462 12.189 9.96744C12.7541 9.75403 13.3517 9.63911 13.9558 9.62767C14.7283 9.58398 14.9823 9.58398 16.9554 9.58398C18.9617 9.58398 19.1922 9.5945 19.9567 9.62767C20.5623 9.63921 21.1615 9.75412 21.7284 9.96744C22.7058 10.3466 23.4788 11.1193 23.8584 12.0966C24.0745 12.6704 24.1897 13.2771 24.199 13.8901C24.2443 14.6651 24.2443 14.9183 24.2443 16.8922C24.2443 18.8661 24.2329 19.125 24.199 19.8911C24.1869 20.4964 24.072 21.0952 23.8592 21.6619C23.4787 22.6389 22.7056 23.4114 21.7284 23.7911C21.1623 24.0032 20.5643 24.1178 19.9599 24.1301C19.1874 24.1746 18.9342 24.1746 16.9554 24.1746ZM16.9279 10.8646C14.9492 10.8646 14.7437 10.8743 13.9711 10.9091C13.51 10.9152 13.0533 11.0003 12.621 11.1607C11.9825 11.405 11.4773 11.9082 11.2303 12.5456C11.0687 12.9827 10.9836 13.4444 10.9787 13.9104C10.9359 14.6943 10.9359 14.8997 10.9359 16.8647C10.9359 18.8063 10.9431 19.0417 10.9787 19.8207C10.986 20.282 11.071 20.7387 11.2303 21.1717C11.4776 21.8087 11.9828 22.3115 12.621 22.5558C13.053 22.7173 13.5099 22.8024 13.9711 22.8074C14.7542 22.8527 14.9605 22.8527 16.9279 22.8527C18.9123 22.8527 19.1178 22.843 19.8839 22.8074C20.3453 22.8018 20.8024 22.7167 21.2349 22.5558C21.8695 22.3094 22.3714 21.8078 22.6182 21.1733C22.7795 20.7359 22.8646 20.274 22.8698 19.8078H22.8787C22.9135 19.0344 22.9135 18.8281 22.9135 16.8518C22.9135 14.8755 22.9046 14.6676 22.8698 13.895C22.8626 13.4342 22.7775 12.978 22.6182 12.5456C22.372 11.9102 21.87 11.4076 21.2349 11.1607C20.8024 10.9995 20.3454 10.9144 19.8839 10.9091C19.1016 10.8646 18.897 10.8646 16.9279 10.8646ZM16.9554 20.6014C15.4426 20.6023 14.0783 19.6919 13.4986 18.2945C12.9189 16.8972 13.2381 15.2883 14.3074 14.2181C15.3766 13.148 16.9852 12.8274 18.3831 13.4058C19.7809 13.9843 20.6925 15.3479 20.6929 16.8607C20.6906 18.9244 19.0192 20.5974 16.9554 20.6014ZM16.9554 14.4321C15.6151 14.4321 14.5285 15.5187 14.5285 16.8591C14.5285 18.1994 15.6151 19.286 16.9554 19.286C18.2958 19.286 19.3823 18.1994 19.3823 16.8591C19.3792 15.52 18.2945 14.4353 16.9554 14.4321ZM20.8385 13.8554C20.3575 13.8536 19.9688 13.4627 19.9697 12.9817C19.9705 12.5007 20.3607 12.1112 20.8417 12.1112C21.3227 12.1112 21.7129 12.5007 21.7138 12.9817C21.714 13.2137 21.6218 13.4363 21.4576 13.6003C21.2933 13.7642 21.0705 13.856 20.8385 13.8554Z" fill="#EEEEEE"/>
</svg>
