<svg width="143" height="22" viewBox="0 0 143 22" fill="none" xmlns="http://www.w3.org/2000/svg">
<g clip-path="url(#clip0_1_7373)">
<path fill-rule="evenodd" clip-rule="evenodd" d="M16.4872 0H1.35999L0 5.5002H16.4872C17.2165 5.5002 17.9161 5.78994 18.4318 6.30569C18.9476 6.82143 19.2373 7.52093 19.2373 8.2503C19.2373 8.97967 18.9476 9.67917 18.4318 10.1949C17.9161 10.7107 17.2165 11.0004 16.4872 11.0004H0V22H5.46891V16.4998H16.4872C18.6752 16.4998 20.7736 15.6306 22.3208 14.0835C23.868 12.5363 24.7372 10.4379 24.7372 8.2499C24.7372 6.06189 23.868 3.9635 22.3208 2.41634C20.7736 0.869183 18.6752 0 16.4872 0V0Z" fill="#FF4D23"/>
<path fill-rule="evenodd" clip-rule="evenodd" d="M38.3902 16.4998C36.9431 16.4823 35.5611 15.8952 34.544 14.8656C33.5268 13.8361 32.9564 12.4472 32.9564 11C32.9564 9.55278 33.5268 8.16387 34.544 7.13436C35.5611 6.10485 36.9431 5.5177 38.3902 5.5002H50.7757L52.122 0H38.3693C35.4519 0 32.654 1.15892 30.591 3.22183C28.5281 5.28473 27.3691 8.08262 27.3691 11C27.3691 13.9174 28.5281 16.7153 30.591 18.7782C32.654 20.8411 35.4519 22 38.3693 22H50.7596L52.1043 16.4998H38.3902Z" fill="#FF4D23"/>
<path fill-rule="evenodd" clip-rule="evenodd" d="M68.4889 3.55793e-06H56.0986L54.7539 5.5002H68.5066C69.2345 5.4914 69.9568 5.62716 70.6318 5.8996C71.3068 6.17204 71.921 6.57575 72.4388 7.08733C72.9566 7.59891 73.3677 8.20817 73.6483 8.87982C73.9289 9.55146 74.0734 10.2721 74.0734 11C74.0734 11.7279 73.9289 12.4486 73.6483 13.1202C73.3677 13.7918 72.9566 14.4011 72.4388 14.9127C71.921 15.4243 71.3068 15.828 70.6318 16.1004C69.9568 16.3728 69.2345 16.5086 68.5066 16.4998H60.2542V8.20326H54.7539V22H68.5066C69.9512 21.9988 71.3814 21.7132 72.7155 21.1593C74.0497 20.6054 75.2617 19.7942 76.2823 18.7719C77.3029 17.7497 78.1122 16.5364 78.664 15.2013C79.2157 13.8663 79.4991 12.4357 79.4979 10.9912C79.4968 9.54662 79.2111 8.11645 78.6572 6.78231C78.1033 5.44818 77.2921 4.2362 76.2698 3.21557C75.2475 2.19495 74.0342 1.38567 72.6992 0.833943C71.3641 0.282215 69.9335 -0.00115823 68.4889 3.55793e-06Z" fill="#1C5A9D"/>
<path fill-rule="evenodd" clip-rule="evenodd" d="M101.283 5.5002H113.669L115.015 0H101.262C98.3447 0 95.5468 1.15892 93.4838 3.22183C91.4209 5.28473 90.262 8.08262 90.262 11C90.262 13.9174 91.4209 16.7153 93.4838 18.7782C95.5468 20.8411 98.3447 22 101.262 22H115.015V8.24749H102.625L101.283 13.7525H109.533V16.5022H101.283C99.8359 16.4847 98.454 15.8976 97.4368 14.8681C96.4197 13.8385 95.8493 12.4496 95.8493 11.0024C95.8493 9.55519 96.4197 8.16628 97.4368 7.13677C98.454 6.10726 99.8359 5.52011 101.283 5.50261V5.5002Z" fill="#1C5A9D"/>
<path d="M87.63 0H82.1298V22H87.63V0Z" fill="#1C5A9D"/>
<path d="M128.632 18.668C126.602 18.668 124.655 17.8616 123.219 16.4262C121.784 14.9908 120.978 13.044 120.978 11.014C120.978 8.98405 121.784 7.03723 123.219 5.60184C124.655 4.16644 126.602 3.36005 128.632 3.36005H136.729C137.349 3.36005 137.943 3.60628 138.381 4.04457C138.82 4.48287 139.066 5.07732 139.066 5.69717V13.3511H136.958V5.34652H128.632C127.887 5.34652 127.15 5.49318 126.462 5.77811C125.774 6.06305 125.149 6.48069 124.622 7.00719C124.096 7.53369 123.678 8.15874 123.393 8.84664C123.108 9.53454 122.962 10.2718 122.962 11.0164C122.962 11.761 123.108 12.4983 123.393 13.1862C123.678 13.8741 124.096 14.4991 124.622 15.0256C125.149 15.5521 125.774 15.9698 126.462 16.2547C127.15 16.5397 127.887 16.6863 128.632 16.6863H142.397V5.68269C142.395 4.17996 141.797 2.73932 140.735 1.67672C139.672 0.614127 138.232 0.0163196 136.729 0.0144043H128.632C125.718 0.0144043 122.924 1.17172 120.864 3.23175C118.804 5.29179 117.647 8.08579 117.647 10.9991C117.647 13.9125 118.804 16.7065 120.864 18.7665C122.924 20.8265 125.718 21.9838 128.632 21.9838H141.557L142.382 18.6535H128.629L128.632 18.668ZM133.628 13.3358H128.632C128.012 13.3358 127.417 13.0896 126.979 12.6512C126.54 12.2128 126.294 11.6183 126.294 10.9983C126.294 10.3784 126.54 9.78381 126.979 9.34544C127.417 8.90707 128.012 8.66079 128.632 8.66079H133.628V13.3358Z" fill="#1C5A9D"/>
</g>
<defs>
<clipPath id="clip0_1_7373">
<rect width="143" height="22" fill="white"/>
</clipPath>
</defs>
</svg>
