<svg width="34" height="34" viewBox="0 0 34 34" fill="none" xmlns="http://www.w3.org/2000/svg">
<circle cx="17" cy="17" r="16.3485" stroke="#C4C4C4" stroke-width="1.30303"/>
<path d="M17.8285 10.0127C18.6444 10 19.4557 10.0075 20.2661 10C20.3152 10.9568 20.6584 11.9314 21.3571 12.6078C22.0543 13.3011 23.0405 13.6185 24 13.7258V16.2427C23.1008 16.2131 22.1974 16.0256 21.3814 15.6375C21.026 15.4762 20.6949 15.2686 20.3709 15.0562C20.3667 16.8826 20.3783 18.7066 20.3592 20.5254C20.3105 21.3992 20.023 22.2688 19.5161 22.9888C18.7005 24.1875 17.2851 24.9689 15.8313 24.9933C14.9395 25.0444 14.0487 24.8006 13.2889 24.3515C12.0296 23.6071 11.1435 22.2444 11.0144 20.7818C10.9981 20.4721 10.9956 20.1617 11.0069 19.8518C11.1191 18.6625 11.706 17.5248 12.6169 16.7508C13.6494 15.8494 15.0957 15.42 16.4499 15.6741C16.4626 16.5999 16.4256 17.5248 16.4256 18.4506C15.807 18.25 15.084 18.3062 14.5435 18.6827C14.148 18.9438 13.8491 19.3281 13.6929 19.7763C13.5638 20.0932 13.6008 20.4452 13.6082 20.7818C13.7565 21.8075 14.7403 22.6696 15.7906 22.5763C16.4869 22.5688 17.1542 22.1638 17.517 21.5708C17.6344 21.3631 17.7658 21.1508 17.7728 20.9065C17.8341 19.7885 17.8097 18.6751 17.8172 17.5571C17.8224 15.0375 17.8097 12.5248 17.8289 10.0131L17.8285 10.0127Z" fill="black"/>
</svg>
