<svg width="127" height="48" viewBox="0 0 127 48" fill="none" xmlns="http://www.w3.org/2000/svg">
<g clip-path="url(#clip0_1_7391)">
<path d="M32.5569 10.8628H45.3906V13.2832H40.3377V26.9252H37.5679V13.2832H32.5355L32.5569 10.8628ZM44.8413 15.296H47.2092V17.5448H47.2512C47.3423 17.2136 47.4927 16.9016 47.6951 16.6242C47.9107 16.3126 48.1749 16.0377 48.4775 15.81C48.779 15.5533 49.1222 15.3504 49.4922 15.2102C49.8467 15.0584 50.2277 14.9782 50.6132 14.9743C50.9089 14.9743 51.1205 14.9957 51.226 14.9957C51.3372 15.0206 51.4506 15.0349 51.5645 15.0386V17.5019C51.3834 17.4624 51.1998 17.4348 51.0151 17.4194C50.833 17.3945 50.6496 17.3802 50.4658 17.3765C50.0504 17.3751 49.6395 17.4629 49.2608 17.6339C48.8816 17.813 48.5432 18.0682 48.2667 18.3838C47.9707 18.7552 47.7418 19.1757 47.5905 19.6261C47.4131 20.1773 47.3271 20.7539 47.336 21.3329V26.86H44.7992L44.8413 15.296ZM63.194 26.9277H60.6993V25.2976H60.6573C60.3352 25.8915 59.8513 26.3815 59.262 26.7107C58.695 27.0573 58.0443 27.2424 57.3801 27.2461C56.7844 27.3042 56.1833 27.2328 55.6177 27.0369C55.0522 26.841 54.5354 26.5252 54.1029 26.111C53.3549 25.1328 52.9936 23.9126 53.0882 22.6842V15.296H55.6258V22.4276C55.543 23.1977 55.7546 23.9706 56.2179 24.5906C56.4263 24.8101 56.6799 24.9813 56.9612 25.0923C57.2424 25.2033 57.5445 25.2514 57.8462 25.2333C58.3037 25.2474 58.7586 25.1595 59.178 24.9759C59.5157 24.8286 59.8131 24.6023 60.0453 24.3159C60.2778 24.0194 60.4435 23.6761 60.5312 23.3095C60.6364 22.8967 60.6862 22.4717 60.6795 22.0457V15.296H63.2154V26.9277H63.194ZM67.5073 23.2014C67.5172 23.5129 67.5986 23.818 67.7453 24.0928C67.892 24.3677 68.1 24.6049 68.3532 24.7861C68.8849 25.097 69.4929 25.2527 70.1083 25.2357C70.3774 25.2332 70.6461 25.2117 70.9122 25.1714C71.2019 25.1354 71.4861 25.0634 71.758 24.9569C72.0169 24.8639 72.245 24.7008 72.4169 24.4859C72.5937 24.2616 72.677 23.9775 72.6492 23.6931C72.6461 23.5403 72.6127 23.3897 72.5511 23.2499C72.4895 23.1102 72.4007 22.9841 72.2901 22.8789C72.0386 22.6617 71.7527 22.488 71.4442 22.3649C71.0584 22.224 70.6614 22.1161 70.2574 22.0424C69.8135 21.9599 69.3695 21.8494 68.9042 21.7429C68.4388 21.6365 67.9735 21.507 67.5296 21.3577C67.1022 21.22 66.7016 21.0099 66.3452 20.7365C65.9945 20.4804 65.7118 20.1422 65.5216 19.7515C65.2961 19.2927 65.1872 18.7852 65.2045 18.2741C65.1803 17.7088 65.344 17.1515 65.6698 16.6893C65.9728 16.2612 66.3709 15.9093 66.8328 15.6615C67.3215 15.3937 67.8498 15.2058 68.3977 15.1046C68.9346 15.0044 69.4797 14.9542 70.026 14.9545C70.5955 14.9516 71.1634 15.0164 71.7177 15.1475C72.2385 15.2611 72.7333 15.4719 73.1763 15.7687C73.6158 16.0502 73.984 16.43 74.252 16.8783C74.5572 17.3796 74.745 17.9437 74.8013 18.5281H72.1591C72.1289 18.2708 72.0386 18.0243 71.8955 17.8084C71.7524 17.5926 71.5606 17.4135 71.3355 17.2858C70.8663 17.0648 70.3525 16.955 69.8341 16.9649C69.6652 16.9649 69.4321 16.9863 69.1999 17.0078C68.9623 17.0422 68.7287 17.0997 68.5023 17.1794C68.2966 17.2625 68.1098 17.3862 67.9529 17.5432C67.8752 17.6262 67.8146 17.7239 67.7747 17.8305C67.7349 17.9371 67.7165 18.0506 67.7206 18.1643C67.7144 18.3051 67.7397 18.4455 67.7945 18.5752C67.8494 18.7049 67.9325 18.8208 68.0377 18.9142C68.2893 19.1266 68.5754 19.294 68.8836 19.4092C69.2687 19.5494 69.6648 19.6567 70.068 19.7301C70.5119 19.8126 70.9739 19.9231 71.4426 20.0295C71.9112 20.136 72.3486 20.2655 72.7958 20.4148C73.2251 20.5479 73.6264 20.7584 73.9802 21.036C74.3266 21.2941 74.6148 21.6224 74.826 21.9995C75.0493 22.4438 75.1583 22.9369 75.1431 23.4341C75.1637 24.0526 75.0019 24.6635 74.6778 25.1904C74.3634 25.6639 73.9514 26.0644 73.4695 26.3651C72.9565 26.6665 72.4013 26.8889 71.8223 27.025C71.2322 27.1585 70.63 27.2303 70.0251 27.2395C69.347 27.2451 68.6712 27.1586 68.0163 26.9821C67.441 26.8283 66.8971 26.5745 66.4094 26.2323C65.9637 25.899 65.6016 25.4663 65.3519 24.9685C65.0783 24.408 64.9339 23.7931 64.9294 23.1693H67.4876V23.1907L67.5073 23.2014ZM75.8588 15.2985H77.7828V11.7834H80.3204V15.2746H82.6043V17.181H80.3204V23.3953C80.3219 23.6315 80.3359 23.8675 80.3624 24.1023C80.3828 24.2746 80.433 24.4421 80.5107 24.5972C80.5992 24.7295 80.7239 24.8334 80.8698 24.8967C81.0866 24.9739 81.3159 25.0102 81.546 25.0039C81.7225 25.0075 81.8991 25.0003 82.0747 24.9825C82.2524 24.9654 82.429 24.9379 82.6035 24.9V26.8914C82.3284 26.9343 82.0541 26.9557 81.7799 26.9739C81.5069 27.01 81.2315 27.0244 80.9562 27.0168C80.414 27.0335 79.8723 26.9685 79.3494 26.8237C78.992 26.7178 78.6656 26.5268 78.3981 26.2669C78.1652 26.0061 78.0047 25.6887 77.9327 25.3463C77.8459 24.923 77.7963 24.493 77.7845 24.061V17.2025H75.858V15.2531L75.8588 15.2985ZM84.38 15.2985H86.7685V16.8783H86.8122C87.1283 16.2394 87.6508 15.7263 88.2947 15.4222C88.9428 15.1178 89.6512 14.9641 90.3669 14.9726C91.1843 14.9474 91.9958 15.1171 92.7349 15.4676C93.3909 15.7681 93.9642 16.2239 94.4052 16.7958C94.8646 17.3793 95.2026 18.0491 95.3993 18.7657C95.8356 20.2895 95.8501 21.9035 95.4413 23.4349C95.2524 24.1316 94.946 24.7909 94.5353 25.3842C94.1113 25.9778 93.5483 26.4581 92.8958 26.783C92.2433 27.1079 91.5212 27.2675 90.7928 27.2478C90.4238 27.2439 90.056 27.208 89.6932 27.1405C89.3292 27.0761 88.9742 26.9684 88.6357 26.8196C88.2992 26.6733 87.9857 26.4788 87.705 26.2422C87.4214 26.0131 87.1783 25.7378 86.986 25.4279H86.944V31.2322H84.4015V15.296L84.38 15.2985ZM93.2364 21.1218C93.2414 20.6072 93.1712 20.0947 93.0281 19.6006C92.9068 19.1306 92.699 18.6874 92.4153 18.2939C92.1499 17.9236 91.813 17.6105 91.4245 17.3732C91.0052 17.1377 90.5304 17.0195 90.0499 17.0309C89.5874 17.0023 89.1251 17.089 88.7043 17.2834C88.2836 17.4778 87.9176 17.7736 87.6391 18.1445C87.0674 19.0365 86.7865 20.0844 86.8353 21.1432C86.8258 21.6932 86.8971 22.2416 87.0469 22.7708C87.1712 23.2371 87.3868 23.674 87.6811 24.0561C87.952 24.4131 88.2986 24.7055 88.6958 24.9124C89.1198 25.1335 89.5926 25.2438 90.0704 25.2333C90.5807 25.248 91.0853 25.1222 91.5291 24.8695C91.9184 24.632 92.2563 24.319 92.5232 23.9488C92.7866 23.5517 92.973 23.1084 93.0725 22.6421C93.1809 22.1425 93.2374 21.633 93.2414 21.1218H93.2364ZM97.7005 10.8628H100.237V13.2832H97.7005V10.8628ZM97.7005 15.296H100.237V26.9277H97.7005V15.296ZM102.5 10.8628H105.037V26.9252H102.5V10.8628ZM112.775 27.2469C111.934 27.2645 111.098 27.104 110.322 26.7759C109.638 26.4808 109.02 26.0511 108.504 25.5121C108.001 24.9463 107.619 24.2828 107.383 23.5628C107.116 22.7691 106.98 21.937 106.981 21.0995C106.97 20.2681 107.106 19.4414 107.383 18.6577C107.624 17.9399 108.005 17.2772 108.504 16.7083C109.01 16.158 109.631 15.7265 110.322 15.4445C111.101 15.1266 111.935 14.9665 112.775 14.9735C113.617 14.9559 114.453 15.1164 115.228 15.4445C115.918 15.7332 116.538 16.1657 117.047 16.7133C117.551 17.279 117.932 17.9426 118.168 18.6626C118.435 19.4489 118.571 20.2739 118.57 21.1044C118.583 21.9429 118.447 22.777 118.168 23.5677C117.919 24.2817 117.539 24.9428 117.047 25.517C116.541 26.0663 115.919 26.4968 115.227 26.7776C114.45 27.0967 113.616 27.2563 112.776 27.2469H112.775ZM112.775 25.2126C113.285 25.222 113.788 25.0965 114.234 24.8488C114.639 24.6161 114.986 24.2939 115.249 23.9068C115.522 23.5099 115.722 23.0674 115.841 22.6C116.095 21.6239 116.095 20.599 115.841 19.6228C115.727 19.154 115.526 18.7108 115.249 18.3161C114.98 17.94 114.634 17.6261 114.234 17.3955C113.787 17.1504 113.285 17.025 112.775 17.0317C112.266 17.0224 111.762 17.1479 111.317 17.3955C110.917 17.6267 110.571 17.9406 110.302 18.3161C110.025 18.7108 109.824 19.154 109.71 19.6228C109.456 20.599 109.456 21.6239 109.71 22.6C109.824 23.0689 110.025 23.5121 110.302 23.9068C110.57 24.2892 110.916 24.6103 111.317 24.8488C111.76 25.103 112.265 25.2281 112.776 25.2102L112.775 25.2126ZM119.33 15.2968H121.254V11.7834H123.793V15.2746H126.077V17.181H123.793V23.3953C123.794 23.6315 123.808 23.8675 123.835 24.1023C123.855 24.2746 123.905 24.4421 123.983 24.5972C124.072 24.7295 124.196 24.8334 124.342 24.8967C124.559 24.9739 124.788 25.0102 125.018 25.0039C125.195 25.0075 125.371 25.0003 125.547 24.9825C125.725 24.9654 125.901 24.9379 126.076 24.9V26.8914C125.801 26.9343 125.527 26.9557 125.252 26.9739C124.979 27.01 124.704 27.0244 124.429 27.0168C123.886 27.0335 123.345 26.9685 122.822 26.8237C122.464 26.7178 122.138 26.5268 121.87 26.2669C121.638 26.0061 121.477 25.6887 121.405 25.3463C121.318 24.923 121.269 24.493 121.257 24.061V17.2025H119.333V15.2531L119.33 15.2968Z" fill="black"/>
<path d="M29.8242 10.3052H18.4302L14.9224 0L11.394 10.3052H0L9.21468 17.615L5.68299 28.5141L14.9018 21.7718L24.1165 28.5141L20.6095 17.6183L29.8242 10.3052Z" fill="#00B67A"/>
<path d="M20.3352 20.0675L19.6763 17.6521L14.9125 21.7257L20.3352 20.0675Z" fill="#005128"/>
<path d="M42.7032 45.2728L37.5201 48.0001L38.5085 42.2255L34.3179 38.1346L40.1088 37.2915L42.7032 32.0342L45.2926 37.2899L51.0835 38.133L46.8929 42.2239L47.8813 47.9984L42.7032 45.2728Z" fill="#FFAD00"/>
<path d="M61.6819 45.2728L56.4989 48.0001L57.4872 42.2255L53.2966 38.1346L59.0875 37.2915L61.6819 32.0342L64.2714 37.2899L70.0623 38.133L65.8717 42.2239L66.86 47.9984L61.6819 45.2728Z" fill="#FFAD00"/>
<path d="M80.6614 45.2728L75.4784 48.0001L76.4667 42.2255L72.2761 38.1346L78.067 37.2915L80.6614 32.0342L83.2509 37.2899L89.0418 38.133L84.8512 42.2239L85.8395 47.9984L80.6614 45.2728Z" fill="#FFAD00"/>
<path d="M99.6401 45.2728L94.4571 48.0001L95.4454 42.2255L91.2548 38.1346L97.0457 37.2915L99.6401 32.0342L102.23 37.2899L108.02 38.133L103.83 42.2239L104.818 47.9984L99.6401 45.2728Z" fill="#FFAD00"/>
<path d="M118.62 45.2728L113.437 48.0001L114.425 42.2255L110.234 38.1346L116.025 37.2915L118.62 32.0342L121.209 37.2899L127 38.133L122.809 42.2239L123.798 47.9984L118.62 45.2728Z" fill="#FFAD00"/>
</g>
<defs>
<clipPath id="clip0_1_7391">
<rect width="127" height="48" fill="white"/>
</clipPath>
</defs>
</svg>
