<svg width="34" height="34" viewBox="0 0 34 34" fill="none" xmlns="http://www.w3.org/2000/svg">
<circle cx="17.0462" cy="16.8607" r="16.3607" stroke="#595959"/>
<path d="M22.8331 13.0157C23.482 12.6278 23.9675 12.017 24.199 11.2973C23.5893 11.6591 22.9222 11.9139 22.2266 12.0508C21.2621 11.0306 19.7341 10.7823 18.4963 11.4447C17.2585 12.1071 16.6174 13.5162 16.9311 14.8846C14.4337 14.7592 12.1069 13.5795 10.5297 11.639C9.70661 13.0587 10.1272 14.8735 11.4909 15.7864C10.9978 15.7706 10.5156 15.6371 10.0846 15.397C10.0846 15.41 10.0846 15.4231 10.0846 15.4361C10.0848 16.915 11.1271 18.1888 12.5767 18.4819C12.1193 18.6064 11.6395 18.6247 11.1739 18.5355C11.5816 19.8002 12.7472 20.6666 14.0757 20.6925C12.9754 21.5561 11.6165 22.0244 10.2177 22.0221C9.96981 22.0225 9.72208 22.0082 9.47583 21.9794C10.8962 22.8922 12.5494 23.3766 14.2378 23.3749C16.5868 23.3911 18.8442 22.465 20.5051 20.8039C22.1661 19.1429 23.0919 16.8854 23.0756 14.5364C23.0756 14.4018 23.0725 14.2679 23.0662 14.1347C23.6745 13.695 24.1996 13.1504 24.6166 12.5264C24.0499 12.7776 23.4487 12.9425 22.8331 13.0157Z" fill="#EEEEEE"/>
</svg>
