<svg width="34" height="34" viewBox="0 0 34 34" fill="none" xmlns="http://www.w3.org/2000/svg">
<circle cx="17.139" cy="16.8607" r="16.3607" stroke="#595959"/>
<path d="M17.1428 21.9361H17.1283C17.0834 21.9361 12.5936 21.9274 11.4608 21.6197C10.8379 21.4519 10.3514 20.9652 10.184 20.3422C9.98029 19.1931 9.88193 18.0277 9.89012 16.8607C9.88486 15.6917 9.98588 14.5247 10.192 13.374C10.364 12.7505 10.8483 12.2615 11.4702 12.0835C12.5719 11.7939 16.9379 11.7939 17.1232 11.7939H17.1384C17.184 11.7939 21.6854 11.8026 22.8066 12.1103C23.4282 12.2789 23.9137 12.7647 24.082 13.3863C24.2922 14.5398 24.3908 15.7108 24.3766 16.8831C24.3816 18.0506 24.2804 19.2162 24.074 20.3654C23.9044 20.9876 23.4176 21.4733 22.795 21.6415C21.6948 21.9332 17.3281 21.9361 17.1428 21.9361ZM15.6951 14.6928L15.6915 19.0357L19.464 16.8643L15.6951 14.6928Z" fill="#EEEEEE"/>
</svg>
