<svg width="157" height="28" viewBox="0 0 157 28" fill="none" xmlns="http://www.w3.org/2000/svg">
<path d="M156.427 6.059L151.554 24.2064C151.044 26.0885 149.343 27.3953 147.395 27.3953H4.62389C1.78836 27.3953 -0.274585 24.7077 0.465118 21.9708L5.33894 3.82346C5.84851 1.94132 7.54983 0.634521 9.49771 0.634521H152.26C155.096 0.634521 157.159 3.3221 156.419 6.059H156.427Z" fill="#001839"/>
<path d="M13.7634 17.3436L19.2125 13.5876C20.2563 12.8643 20.7823 12.2808 20.7823 11.5904C20.7823 10.9 20.2563 10.4808 19.4262 10.4808C18.4893 10.4808 17.7002 11.0068 16.8537 11.8205L15.4072 10.3165C16.451 9.13293 17.8235 8.36035 19.5331 8.36035C21.7604 8.36035 23.2069 9.59319 23.2069 11.3274C23.2069 12.6506 22.5905 13.6205 20.6673 14.9601L17.3468 17.2368H21.8672L21.3166 19.2833H13.2374L13.7634 17.3436Z" fill="#FD6205"/>
<path d="M23.774 17.5327L25.4343 16.1355C26.1575 16.9163 26.9548 17.319 27.9575 17.319C29.2314 17.319 30.1437 16.5464 30.1437 15.6424C30.1437 14.8698 29.5109 14.2534 28.1465 14.2534C27.6862 14.2534 27.1027 14.426 26.7 14.5903L25.5 13.6205L27.1767 8.50833H33.7025L33.1354 10.5877H28.7465L28.1301 12.4205C28.4835 12.3466 28.8533 12.2973 29.2232 12.2973C31.1957 12.2973 32.5765 13.4972 32.5765 15.3711C32.5765 17.508 30.7026 19.4477 27.7602 19.4477C26.2068 19.4477 24.5138 18.6176 23.774 17.5245V17.5327Z" fill="#FD6205"/>
<path d="M35.3462 13.3903H40.0885L39.4885 15.6341H34.7462L35.3462 13.3903Z" fill="#FD6205"/>
<path d="M41.2391 17.3436L46.6883 13.5876C47.7321 12.8643 48.2581 12.2808 48.2581 11.5904C48.2581 10.9 47.7321 10.4808 46.902 10.4808C45.965 10.4808 45.176 11.0068 44.3295 11.8205L42.8829 10.3165C43.9267 9.13293 45.2993 8.36035 47.0088 8.36035C49.2362 8.36035 50.6827 9.59319 50.6827 11.3274C50.6827 12.6506 50.0663 13.6205 48.143 14.9601L44.8226 17.2368H49.343L48.7923 19.2833H40.7131L41.2391 17.3436Z" fill="#FD6205"/>
<path d="M53.4115 18.486C52.6882 17.7628 52.3019 16.8094 52.3019 15.4532C52.3019 13.4067 53.0252 11.3273 54.4142 9.94657C55.384 8.97673 56.7237 8.32744 58.3182 8.32744C59.6908 8.32744 60.825 8.82056 61.6386 9.57671L60.2661 11.2862C59.7154 10.7931 58.9922 10.4561 58.1127 10.4561C57.2333 10.4561 56.5922 10.7356 56.0169 11.3027C55.5566 11.7629 55.1375 12.4533 54.9074 13.193C55.3676 12.7328 56.3703 12.289 57.3812 12.289C59.1812 12.289 60.6606 13.3656 60.6606 15.2889C60.6606 17.4587 58.688 19.4723 56.1977 19.4723C55.0553 19.4723 54.0444 19.1353 53.3951 18.486H53.4115ZM58.2853 15.6094C58.2853 14.73 57.6278 14.1957 56.6662 14.1957C55.3923 14.1957 54.5457 15.0423 54.5457 16.045C54.5457 16.4313 54.7019 16.7683 54.9484 17.0148C55.2443 17.3107 55.6553 17.4751 56.2142 17.4751C57.4634 17.4751 58.2935 16.5381 58.2935 15.6094H58.2853Z" fill="#FD6205"/>
<path d="M69.4877 13.0369H68.5015L69.0439 11.0397H70.0138L70.1206 10.5959C70.5973 8.76308 71.7397 7.9494 73.4575 7.9494C74.1232 7.9494 74.6739 8.03981 75.0602 8.17953L74.5506 10.1192C74.2465 9.99591 73.8602 9.92195 73.5315 9.92195C72.915 9.92195 72.5452 10.2178 72.3808 10.8178L72.3151 11.0479H74.304L73.7616 13.0451H71.8219L70.1288 19.2915H67.7864L69.4795 13.0451L69.4877 13.0369Z" fill="#FD6205"/>
<path d="M77.197 15.9792C77.2709 16.9491 77.8627 17.5984 79.0873 17.5984C79.7038 17.5984 80.238 17.4176 80.9202 16.9326L81.9968 18.3792C81.2571 18.9956 80.2298 19.4723 78.8243 19.4723C76.4573 19.4723 75.0107 18.0833 75.0107 15.8066C75.0107 13.53 76.9504 10.8835 79.901 10.8835C82.0379 10.8835 83.2708 12.2725 83.2708 14.0971C83.2708 14.6806 83.1146 15.3464 82.8598 15.971H77.197V15.9792ZM77.4107 14.5163H80.9941C81.0434 14.3601 81.0681 14.1793 81.0681 13.9738C81.0681 13.2999 80.6654 12.7574 79.712 12.7574C78.6517 12.7574 77.7887 13.4642 77.4025 14.5081L77.4107 14.5163Z" fill="#FD6205"/>
<path d="M85.4078 11.0397H87.8077L88.1776 16.53L91.4569 11.0397H93.9637L88.531 19.3491H86.4105L85.4078 11.0397Z" fill="#FD6205"/>
<path d="M96.4868 15.9792C96.5607 16.9491 97.1525 17.5984 98.3771 17.5984C98.9935 17.5984 99.5278 17.4176 100.21 16.9326L101.287 18.3792C100.547 18.9956 99.5196 19.4723 98.1141 19.4723C95.7471 19.4723 94.3005 18.0833 94.3005 15.8066C94.3005 13.53 96.2402 10.8835 99.1908 10.8835C101.328 10.8835 102.561 12.2725 102.561 14.0971C102.561 14.6806 102.404 15.3464 102.15 15.971H96.4868V15.9792ZM96.7005 14.5163H100.284C100.333 14.3601 100.358 14.1793 100.358 13.9738C100.358 13.2999 99.9552 12.7574 99.0018 12.7574C97.9415 12.7574 97.0785 13.4642 96.6922 14.5081L96.7005 14.5163Z" fill="#FD6205"/>
<path d="M105.938 11.0397H108.281L107.837 12.7C108.667 11.4836 109.621 10.7767 110.977 10.8836L110.319 13.3328H110.196C108.643 13.3328 107.443 14.2287 106.875 16.3656L106.095 19.2915H103.752L105.955 11.0397H105.938Z" fill="#FD6205"/>
<path d="M113.738 15.9792C113.812 16.9491 114.404 17.5984 115.629 17.5984C116.245 17.5984 116.779 17.4176 117.462 16.9326L118.538 18.3792C117.799 18.9956 116.771 19.4723 115.366 19.4723C112.999 19.4723 111.552 18.0833 111.552 15.8066C111.552 13.53 113.492 10.8835 116.443 10.8835C118.579 10.8835 119.812 12.2725 119.812 14.0971C119.812 14.6806 119.656 15.3464 119.401 15.971H113.738V15.9792ZM113.952 14.5163H117.536C117.585 14.3601 117.61 14.1793 117.61 13.9738C117.61 13.2999 117.207 12.7574 116.253 12.7574C115.193 12.7574 114.33 13.4642 113.944 14.5081L113.952 14.5163Z" fill="#FD6205"/>
<path d="M123.289 11.0397H125.631L123.412 19.2915H121.07L123.289 11.0397ZM124.045 8.05625H126.511L125.943 10.1356H123.478L124.045 8.05625Z" fill="#FD6205"/>
<path d="M128.598 11.0397H130.941L130.497 12.7C131.327 11.4836 132.28 10.7767 133.636 10.8836L132.979 13.3328H132.856C131.302 13.3328 130.102 14.2287 129.535 16.3656L128.754 19.2915H126.412L128.615 11.0397H128.598Z" fill="#FD6205"/>
<path d="M134.228 15.6505C134.228 13.1848 136.349 10.8835 138.995 10.8835C141.444 10.8835 142.965 12.5026 142.965 14.6971C142.965 17.1628 140.844 19.4641 138.198 19.4641C135.749 19.4641 134.228 17.8449 134.228 15.6505ZM140.672 14.7546C140.672 13.5547 139.948 12.8807 138.888 12.8807C137.458 12.8807 136.521 14.4176 136.521 15.593C136.521 16.7683 137.244 17.4669 138.305 17.4669C139.735 17.4669 140.672 15.9299 140.672 14.7628V14.7546Z" fill="#FD6205"/>
</svg>
