<svg width="223" height="85" viewBox="0 0 223 85" fill="none" xmlns="http://www.w3.org/2000/svg">
<path d="M34.1236 62.5493C18.7202 62.3438 6.30067 49.7524 6.30067 34.268C6.30067 18.7835 18.9333 5.97023 34.5171 5.97023C50.1009 5.97023 62.7335 18.6356 62.7335 34.2598C62.7335 49.8839 50.1009 62.5493 34.5171 62.5493H34.1236ZM34.5171 0.62793C15.9903 0.62793 0.972168 15.685 0.972168 34.2598C0.972168 52.8345 15.9903 67.8916 34.5171 67.8916C53.0439 67.8916 68.062 52.8345 68.062 34.2598C68.062 15.685 53.0439 0.62793 34.5171 0.62793Z" fill="#001839" stroke="#001839" stroke-width="0.821892"/>
<path d="M67.1111 40.4159C67.2258 39.7912 67.3242 39.1666 67.4062 38.5337C67.4062 38.4762 67.4144 38.4104 67.4308 38.3447C67.5046 37.7283 67.5619 37.1036 67.6029 36.479C67.6029 36.4215 67.6029 36.3557 67.6193 36.2899C67.6521 35.6489 67.6767 34.9996 67.6767 34.3503V34.227C67.6767 33.7585 67.6685 33.3065 67.6439 32.8462C67.6357 32.6079 67.6111 32.3695 67.6029 32.1312C67.5865 31.8764 67.5701 31.6216 67.5455 31.3586C67.5209 31.112 67.4964 30.8572 67.4718 30.6107C67.4472 30.3723 67.4144 30.134 67.3898 29.9038C67.357 29.6491 67.3242 29.3943 67.2832 29.1477C67.2504 28.9258 67.2012 28.7039 67.1684 28.4737C67.0865 27.9806 66.9881 27.4957 66.8733 27.0108C66.8405 26.83 66.7996 26.6574 66.7586 26.4766C66.693 26.1889 66.611 25.9095 66.5372 25.63C66.4962 25.4574 66.4471 25.293 66.3979 25.1204C66.3159 24.8245 66.2257 24.5369 66.1355 24.2492C66.0946 24.1095 66.0454 23.9698 65.9962 23.8301C65.6355 22.7452 65.2256 21.6849 64.7583 20.6576C64.7583 20.6411 64.7419 20.6165 64.7337 20.6C64.578 20.263 64.4222 19.9343 64.2583 19.6055C64.2255 19.5398 64.1927 19.474 64.1599 19.4001C63.9959 19.0631 63.8238 18.7343 63.6434 18.4138C63.6271 18.3974 63.6189 18.3727 63.6107 18.3563C63.0286 17.2878 62.3892 16.2522 61.6924 15.2577C61.5038 15.0358 61.3563 14.7975 61.1677 14.592V14.5591C58.5527 11.025 55.3064 8.03329 51.5437 5.75664C51.4863 5.71555 51.4371 5.6909 51.3879 5.65802C48.2564 3.80876 44.8216 2.42799 41.1408 1.68006H41.1326C40.5096 1.54856 39.8784 1.44171 39.2389 1.3513H39.2061C37.9683 1.17048 36.7222 1.05542 35.4434 1.03076H35.2958C34.099 1.10473 33.1562 2.09101 33.1562 3.29919C33.1562 4.50737 34.099 5.49364 35.2958 5.56761V5.58405C35.5336 5.58405 35.7631 5.6087 36.0008 5.61692C51.101 6.42238 63.1024 18.9234 63.1434 34.2599C63.1434 34.2599 63.1434 34.301 63.1434 34.3256V34.3421C63.1434 34.9831 63.1188 35.616 63.0778 36.2406C63.0614 36.4625 63.0368 36.6845 63.0204 36.9064C62.9876 37.3009 62.9466 37.7036 62.8975 38.0981C62.8647 38.3693 62.8155 38.6406 62.7663 38.9118C62.7089 39.2488 62.6597 39.5857 62.5941 39.9145C62.5368 40.2104 62.463 40.498 62.3974 40.7939C62.3318 41.0898 62.258 41.3939 62.1843 41.6816C62.1023 41.9857 62.0121 42.2898 61.9219 42.5939C61.84 42.8651 61.758 43.1363 61.6678 43.4075C61.5612 43.7199 61.4547 44.0239 61.3481 44.328C61.2579 44.5828 61.1513 44.8376 61.053 45.0842C60.93 45.3883 60.807 45.6924 60.6677 45.9965C60.5611 46.2431 60.4463 46.4814 60.3316 46.7198C60.1922 47.0156 60.0529 47.3033 59.8971 47.5992C57.4296 52.3415 53.6833 56.3113 49.1171 59.0399C49.0106 59.0975 48.9204 59.155 48.822 59.2207C48.7974 59.229 48.781 59.2454 48.7646 59.2536C48.24 59.681 47.9039 60.3139 47.9039 61.0371C47.9039 62.3029 48.9204 63.322 50.1828 63.322C50.5599 63.322 50.9042 63.2234 51.224 63.059C51.224 63.059 51.2321 63.0754 51.2403 63.0836C56.5033 59.9851 60.848 55.4729 63.75 50.0731C63.7664 50.0402 63.7828 50.0155 63.7992 49.9827C65.365 47.0485 66.5044 43.8349 67.1275 40.4569C67.1275 40.4323 67.1439 40.4076 67.1439 40.383H67.1275L67.1111 40.4159Z" fill="#FD6205"/>
<path d="M92.0401 53.9852C81.3012 42.9143 81.3914 25.219 92.3189 14.2632C103.337 3.21694 121.208 3.21694 132.225 14.2632C143.243 25.3094 143.243 43.2267 132.225 54.2729C121.208 65.3191 103.337 65.3191 92.3189 54.2729L92.0401 53.9935V53.9852ZM135.996 10.4825C122.896 -2.65138 101.656 -2.65138 88.5561 10.4825C75.4562 23.6163 75.4562 44.9115 88.5561 58.0454C101.656 71.1792 122.896 71.1792 135.996 58.0454C149.096 44.9115 149.096 23.6163 135.996 10.4825Z" fill="#001839" stroke="#001839" stroke-width="0.821892"/>
<path d="M130.987 61.7192C131.512 61.3576 132.02 60.9878 132.52 60.5933C132.57 60.5522 132.619 60.5193 132.668 60.4782C133.152 60.0919 133.635 59.6974 134.103 59.2782C134.144 59.2371 134.193 59.1878 134.242 59.1549C134.717 58.7276 135.193 58.2837 135.652 57.8317L135.701 57.7824L135.718 57.7659L135.742 57.7413H135.75C136.07 57.4125 136.382 57.0838 136.693 56.7386C136.849 56.5578 137.005 56.3769 137.169 56.2044C137.332 56.0071 137.505 55.8181 137.669 55.6208C137.824 55.4236 137.988 55.2345 138.144 55.0373C138.292 54.8482 138.439 54.6592 138.587 54.4784C138.742 54.2729 138.898 54.0757 139.046 53.8702C139.177 53.6811 139.308 53.5003 139.439 53.3113C139.726 52.9004 139.997 52.4894 140.267 52.0702C140.366 51.9223 140.464 51.7661 140.562 51.61C140.718 51.3634 140.858 51.1086 141.005 50.8538C141.095 50.7059 141.177 50.5497 141.259 50.3936C141.407 50.1223 141.546 49.8593 141.685 49.5963C141.751 49.4648 141.817 49.3333 141.882 49.2018C142.399 48.1745 142.85 47.1389 143.251 46.0786C143.259 46.0622 143.268 46.0375 143.276 46.0211C143.407 45.6759 143.522 45.3307 143.645 44.9773C143.669 44.9115 143.694 44.8376 143.718 44.7636C143.841 44.4102 143.948 44.0568 144.046 43.6951C144.046 43.6705 144.063 43.6458 144.063 43.6294C144.399 42.4623 144.686 41.2706 144.891 40.0788C144.915 39.7829 144.981 39.5199 144.989 39.2405L145.014 39.2158C145.661 34.8598 145.473 30.4462 144.415 26.1724C144.407 26.1066 144.391 26.0491 144.374 25.9916C143.464 22.4657 142.005 19.0466 139.931 15.9152H139.923C139.57 15.3727 139.202 14.8467 138.816 14.3289L138.792 14.3043C138.046 13.3016 137.242 12.3317 136.357 11.4112H136.349C136.349 11.4112 136.324 11.3783 136.316 11.3701L136.259 11.3126C135.365 10.5154 134.004 10.5482 133.143 11.403C132.283 12.2578 132.266 13.6221 133.053 14.5262L133.037 14.5426C133.201 14.707 133.348 14.896 133.512 15.0686C143.62 26.345 143.292 43.6952 132.504 54.5688C132.504 54.5688 132.471 54.6017 132.463 54.6181L132.447 54.6345C131.996 55.0866 131.537 55.514 131.061 55.9331C130.889 56.0811 130.717 56.2208 130.545 56.3605C130.241 56.6153 129.93 56.8783 129.618 57.1166C129.397 57.281 129.176 57.4372 128.954 57.6016C128.676 57.7988 128.405 58.0043 128.126 58.1851C127.881 58.3495 127.626 58.5057 127.372 58.67C127.118 58.8344 126.848 58.9906 126.594 59.1467C126.323 59.3029 126.044 59.459 125.766 59.607C125.52 59.7467 125.265 59.8782 125.011 60.0015C124.716 60.1494 124.429 60.2891 124.134 60.4289C123.888 60.5439 123.642 60.6508 123.396 60.7576C123.093 60.8891 122.79 61.0124 122.486 61.1275C122.241 61.2261 121.986 61.3165 121.74 61.4069C121.437 61.5138 121.126 61.6206 120.814 61.7192C115.723 63.3302 110.28 63.4699 105.116 62.1631C105.001 62.1302 104.894 62.1055 104.779 62.0891C104.755 62.0809 104.73 62.0727 104.714 62.0727C104.05 62.0069 103.361 62.2124 102.853 62.722C101.959 63.6178 101.959 65.0561 102.853 65.952C103.124 66.2232 103.435 66.3958 103.771 66.5027C103.771 66.5027 103.771 66.5273 103.771 66.5355C109.682 68.0725 115.928 67.9656 121.79 66.1986C121.822 66.1903 121.855 66.1739 121.888 66.1657C125.069 65.1959 128.135 63.7411 130.963 61.7932C130.979 61.7768 131.004 61.7686 131.02 61.7521H130.996L130.987 61.7192Z" fill="#FD6205"/>
<path d="M215.317 24.2328C220.785 38.6735 213.678 54.873 199.307 60.5687C184.813 66.3137 168.418 59.1961 162.688 44.665C156.958 30.1422 164.065 13.6962 178.55 7.95934C193.044 2.21432 209.439 9.34012 215.161 23.863L215.309 24.2328H215.317ZM157.737 46.6294C164.549 63.9056 184.035 72.371 201.266 65.5411C218.498 58.7112 226.941 39.1748 220.129 21.8986C213.317 4.62245 193.831 -3.84303 176.599 2.98689C159.368 9.81682 150.924 29.3532 157.737 46.6294Z" fill="#001839" stroke="#001839" stroke-width="0.821892"/>
<path d="M182.649 1.62259C182.026 1.74587 181.411 1.88559 180.796 2.04175C180.739 2.05818 180.682 2.07463 180.616 2.09107C180.018 2.24723 179.419 2.41983 178.829 2.61708C178.772 2.64174 178.714 2.65817 178.649 2.67461C178.042 2.88008 177.427 3.09377 176.829 3.33212L176.763 3.35678H176.747C176.747 3.35678 176.73 3.37322 176.722 3.37322H176.714C176.288 3.54582 175.878 3.72664 175.46 3.91567C175.247 4.0143 175.025 4.12114 174.812 4.21977C174.583 4.33483 174.353 4.44168 174.115 4.55675C173.894 4.67181 173.673 4.78688 173.443 4.90194C173.23 5.00879 173.025 5.13206 172.82 5.23891C172.599 5.37041 172.377 5.48548 172.156 5.61698C171.959 5.73205 171.771 5.85534 171.574 5.9704C171.148 6.23341 170.738 6.49641 170.32 6.78407C170.172 6.8827 170.016 6.98132 169.869 7.08816C169.631 7.25254 169.393 7.43336 169.164 7.60596C169.025 7.71281 168.885 7.81143 168.746 7.9265C168.508 8.11553 168.27 8.29635 168.041 8.49361C167.926 8.58401 167.811 8.68265 167.705 8.78127C166.828 9.51276 166 10.2853 165.213 11.099C165.196 11.1154 165.18 11.1319 165.163 11.1483C164.909 11.4113 164.663 11.6826 164.417 11.9538C164.368 12.0113 164.319 12.0688 164.27 12.1182C164.016 12.3976 163.778 12.677 163.54 12.9647C163.524 12.9811 163.508 13.0058 163.499 13.0222C162.721 13.9592 161.999 14.9372 161.327 15.9482C161.188 16.2112 161.024 16.4249 160.901 16.6797H160.876C158.556 20.4275 156.974 24.5534 156.253 28.9012C156.236 28.9669 156.228 29.0245 156.22 29.082C155.654 32.6819 155.638 36.3969 156.302 40.0954C156.417 40.7364 156.539 41.3611 156.695 41.9939L156.712 42.0268C156.999 43.2432 157.351 44.4514 157.794 45.6514C157.794 45.6514 157.802 45.6925 157.81 45.7089L157.843 45.7911C158.351 46.876 159.605 47.3938 160.737 46.9499C161.868 46.5061 162.425 45.2651 162.057 44.1226H162.073C161.983 43.8925 161.925 43.6706 161.843 43.4405C157.04 29.0656 164.221 13.277 178.427 7.59775C178.427 7.59775 178.468 7.5813 178.485 7.56486H178.501C179.1 7.3183 179.69 7.11282 180.288 6.92379C180.501 6.84982 180.714 6.80051 180.928 6.73476C181.313 6.61969 181.698 6.50463 182.075 6.41422C182.346 6.34847 182.608 6.29093 182.879 6.2334C183.207 6.15943 183.543 6.08546 183.871 6.02793C184.166 5.97862 184.461 5.9293 184.756 5.88821C185.059 5.8389 185.363 5.7978 185.658 5.7567C185.969 5.71561 186.289 5.69095 186.6 5.66629C186.887 5.64164 187.166 5.61699 187.445 5.60877C187.773 5.59233 188.092 5.58411 188.42 5.56767C188.691 5.55945 188.961 5.56767 189.232 5.56767C189.56 5.56767 189.888 5.57589 190.216 5.59233C190.486 5.60055 190.748 5.62521 191.011 5.63342C191.33 5.65808 191.658 5.68273 191.986 5.71561C197.298 6.26627 202.348 8.30457 206.57 11.5593C206.66 11.6332 206.75 11.7072 206.849 11.7647C206.865 11.7812 206.89 11.7976 206.906 11.8058C207.488 12.1346 208.201 12.225 208.874 11.9538C210.046 11.4853 210.62 10.1621 210.152 8.98675C210.013 8.63333 209.792 8.34566 209.529 8.11553C209.529 8.11553 209.546 8.09909 209.546 8.09087C204.734 4.31839 198.954 1.92668 192.88 1.21985C192.847 1.21985 192.814 1.21986 192.773 1.21164C189.47 0.833569 186.084 0.94863 182.715 1.60614C182.69 1.61436 182.666 1.60615 182.641 1.62259L182.657 1.63903L182.649 1.62259Z" fill="#FD6205"/>
<path d="M21.5106 31.0042C21.6346 30.1443 21.8744 29.3919 22.2299 28.7469C22.5855 28.0937 23.0278 27.5522 23.557 27.1222C24.0944 26.684 24.7063 26.3574 25.3925 26.1424C26.0871 25.9192 26.8312 25.8076 27.625 25.8076C28.4518 25.8076 29.1959 25.9275 29.8574 26.1672C30.5271 26.3988 31.0976 26.7253 31.5689 27.147C32.0402 27.5604 32.3999 28.0483 32.6479 28.6105C32.9042 29.1727 33.0324 29.7805 33.0324 30.4337C33.0324 31.0042 32.9662 31.5085 32.8339 31.9467C32.7099 32.3767 32.528 32.7529 32.2882 33.0754C32.0485 33.3978 31.7508 33.6707 31.3953 33.8939C31.0397 34.1172 30.6387 34.3032 30.1922 34.452C31.2671 34.791 32.0691 35.3078 32.5983 36.0023C33.1275 36.6968 33.3921 37.5691 33.3921 38.6192C33.3921 39.5122 33.2267 40.3018 32.896 40.9881C32.5652 41.6743 32.1187 42.2531 31.5565 42.7244C30.9943 43.1874 30.3411 43.5388 29.5969 43.7786C28.8611 44.0184 28.0797 44.1383 27.2529 44.1383C26.3517 44.1383 25.5662 44.0349 24.8964 43.8282C24.2267 43.6215 23.6438 43.3156 23.1477 42.9104C22.6516 42.5053 22.2299 42.0092 21.8827 41.4221C21.5354 40.8351 21.2377 40.1571 20.9897 39.3882L22.3416 38.83C22.6971 38.6812 23.0278 38.644 23.3337 38.7184C23.6479 38.7846 23.8753 38.9499 24.0159 39.2145C24.1647 39.5039 24.3259 39.7892 24.4996 40.0703C24.6815 40.3514 24.8964 40.6036 25.1445 40.8268C25.3925 41.0418 25.6819 41.2196 26.0127 41.3601C26.3517 41.4924 26.7527 41.5586 27.2157 41.5586C27.7366 41.5586 28.1913 41.4759 28.5799 41.3105C28.9685 41.1369 29.291 40.9136 29.5473 40.6408C29.8119 40.3679 30.0062 40.0661 30.1302 39.7354C30.2625 39.3964 30.3287 39.0574 30.3287 38.7184C30.3287 38.2885 30.2832 37.8999 30.1922 37.5526C30.1013 37.1971 29.9111 36.8953 29.6217 36.6472C29.3324 36.3992 28.9148 36.2049 28.3691 36.0643C27.8317 35.9238 27.1082 35.8535 26.1987 35.8535V33.6707C26.9511 33.6624 27.5753 33.5921 28.0714 33.4598C28.5675 33.3275 28.9603 33.1456 29.2497 32.9141C29.5473 32.6743 29.754 32.3891 29.8698 32.0584C29.9855 31.7276 30.0434 31.3638 30.0434 30.967C30.0434 30.1236 29.8078 29.4828 29.3365 29.0446C28.8652 28.6064 28.2368 28.3873 27.4513 28.3873C27.0875 28.3873 26.7527 28.441 26.4467 28.5485C26.1408 28.6477 25.8638 28.7924 25.6158 28.9826C25.376 29.1645 25.1734 29.3795 25.0081 29.6275C24.8427 29.8755 24.7187 30.1484 24.636 30.4461C24.4954 30.8264 24.3094 31.0786 24.0779 31.2026C23.8546 31.3266 23.5363 31.3556 23.1229 31.2894L21.5106 31.0042ZM48.1032 26.006V27.3331C48.1032 27.7299 48.0618 28.0524 47.9792 28.3004C47.8965 28.5402 47.8138 28.7428 47.7311 28.9082L40.9346 42.898C40.7941 43.1874 40.5956 43.4355 40.3393 43.6422C40.083 43.8406 39.7399 43.9398 39.3099 43.9398H37.0899L44.0228 30.2352C44.1799 29.9541 44.3329 29.6978 44.4817 29.4663C44.6388 29.2265 44.8124 28.9991 45.0026 28.7841H36.4202C36.23 28.7841 36.0646 28.7139 35.9241 28.5733C35.7835 28.4327 35.7132 28.2674 35.7132 28.0772V26.006H48.1032Z" fill="#001839"/>
<path d="M111.693 34.9729C111.693 36.5356 111.523 37.8957 111.184 39.0533C110.854 40.2026 110.391 41.1534 109.795 41.9058C109.208 42.6582 108.51 43.2205 107.699 43.5926C106.897 43.9564 106.029 44.1383 105.095 44.1383C104.161 44.1383 103.292 43.9564 102.49 43.5926C101.697 43.2205 101.006 42.6582 100.419 41.9058C99.8321 41.1534 99.3732 40.2026 99.0425 39.0533C98.7118 37.8957 98.5464 36.5356 98.5464 34.9729C98.5464 33.402 98.7118 32.0418 99.0425 30.8925C99.3732 29.7433 99.8321 28.7924 100.419 28.04C101.006 27.2876 101.697 26.7295 102.49 26.3657C103.292 25.9936 104.161 25.8076 105.095 25.8076C106.029 25.8076 106.897 25.9936 107.699 26.3657C108.51 26.7295 109.208 27.2876 109.795 28.04C110.391 28.7924 110.854 29.7433 111.184 30.8925C111.523 32.0418 111.693 33.402 111.693 34.9729ZM108.53 34.9729C108.53 33.6748 108.435 32.5999 108.245 31.7483C108.055 30.8967 107.799 30.2187 107.476 29.7143C107.162 29.21 106.798 28.8586 106.385 28.6601C105.971 28.4534 105.541 28.3501 105.095 28.3501C104.657 28.3501 104.231 28.4534 103.817 28.6601C103.412 28.8586 103.053 29.21 102.738 29.7143C102.424 30.2187 102.172 30.8967 101.982 31.7483C101.8 32.5999 101.709 33.6748 101.709 34.9729C101.709 36.271 101.8 37.3459 101.982 38.1975C102.172 39.0492 102.424 39.7272 102.738 40.2315C103.053 40.7359 103.412 41.0914 103.817 41.2981C104.231 41.4966 104.657 41.5958 105.095 41.5958C105.541 41.5958 105.971 41.4966 106.385 41.2981C106.798 41.0914 107.162 40.7359 107.476 40.2315C107.799 39.7272 108.055 39.0492 108.245 38.1975C108.435 37.3459 108.53 36.271 108.53 34.9729ZM117.35 32.5172C117.747 32.4346 118.128 32.3767 118.491 32.3436C118.855 32.3023 119.207 32.2816 119.546 32.2816C120.488 32.2816 121.319 32.4222 122.038 32.7033C122.758 32.9844 123.361 33.373 123.849 33.8691C124.337 34.3652 124.705 34.9481 124.953 35.6178C125.201 36.2793 125.325 36.9945 125.325 37.7634C125.325 38.7143 125.156 39.5825 124.817 40.3679C124.486 41.1534 124.023 41.8273 123.427 42.3895C122.832 42.9435 122.125 43.3734 121.307 43.6794C120.496 43.9853 119.612 44.1383 118.653 44.1383C118.09 44.1383 117.557 44.0804 117.053 43.9646C116.548 43.8489 116.073 43.6959 115.626 43.5057C115.188 43.3073 114.779 43.0841 114.399 42.836C114.026 42.5797 113.692 42.311 113.394 42.0299L114.337 40.7276C114.535 40.4465 114.795 40.3059 115.118 40.3059C115.325 40.3059 115.535 40.3721 115.75 40.5044C115.965 40.6367 116.209 40.7814 116.482 40.9384C116.763 41.0955 117.09 41.2402 117.462 41.3725C117.842 41.5048 118.297 41.571 118.826 41.571C119.388 41.571 119.885 41.48 120.314 41.2981C120.744 41.1162 121.1 40.864 121.381 40.5416C121.67 40.2108 121.885 39.8222 122.026 39.3758C122.175 38.921 122.249 38.429 122.249 37.8999C122.249 36.9242 121.964 36.1635 121.393 35.6178C120.831 35.0639 119.996 34.7869 118.888 34.7869C118.037 34.7869 117.164 34.944 116.271 35.2582L114.361 34.7125L115.85 26.006H124.705V27.3083C124.705 27.7465 124.568 28.102 124.296 28.3749C124.023 28.6477 123.56 28.7841 122.907 28.7841H117.983L117.35 32.5172Z" fill="#001839"/>
<path d="M183.413 37.1805V31.3142C183.413 30.7602 183.45 30.1484 183.525 29.4787L177.956 37.1805H183.413ZM188.337 37.1805V38.9541C188.337 39.1194 188.283 39.2641 188.176 39.3882C188.068 39.5039 187.915 39.5618 187.717 39.5618H186.08V43.9398H183.413V39.5618H175.848C175.641 39.5618 175.459 39.4998 175.302 39.3758C175.145 39.2435 175.046 39.0822 175.004 38.8921L174.682 37.3418L183.178 25.9936H186.08V37.1805H188.337ZM201.138 41.0873C201.469 41.0873 201.729 41.1824 201.919 41.3725C202.118 41.5544 202.217 41.7983 202.217 42.1043V43.9398H189.914V42.9228C189.914 42.7161 189.955 42.5011 190.038 42.2779C190.129 42.0464 190.27 41.8397 190.46 41.6578L195.904 36.2007C196.359 35.7377 196.764 35.2954 197.12 34.8737C197.484 34.452 197.785 34.0345 198.025 33.6211C198.265 33.2076 198.447 32.7901 198.571 32.3684C198.703 31.9385 198.769 31.4879 198.769 31.0166C198.769 30.5866 198.707 30.2104 198.583 29.8879C198.459 29.5572 198.281 29.2802 198.05 29.057C197.827 28.8337 197.554 28.6684 197.231 28.5609C196.917 28.4451 196.562 28.3873 196.165 28.3873C195.801 28.3873 195.462 28.441 195.148 28.5485C194.842 28.6477 194.569 28.7924 194.329 28.9826C194.089 29.1645 193.887 29.3795 193.722 29.6275C193.556 29.8755 193.432 30.1484 193.349 30.4461C193.209 30.8264 193.027 31.0786 192.804 31.2026C192.581 31.3266 192.258 31.3556 191.836 31.2894L190.224 31.0042C190.348 30.1443 190.588 29.3919 190.943 28.7469C191.299 28.0937 191.741 27.5522 192.27 27.1222C192.808 26.684 193.42 26.3574 194.106 26.1424C194.801 25.9192 195.545 25.8076 196.338 25.8076C197.165 25.8076 197.922 25.9316 198.608 26.1796C199.294 26.4194 199.881 26.7626 200.369 27.209C200.857 27.6555 201.237 28.193 201.51 28.8213C201.783 29.4497 201.919 30.1484 201.919 30.9173C201.919 31.5788 201.82 32.1907 201.622 32.7529C201.432 33.3151 201.171 33.8526 200.84 34.3652C200.518 34.8778 200.138 35.3739 199.699 35.8535C199.261 36.333 198.802 36.8209 198.323 37.317L194.28 41.4469C194.668 41.3312 195.053 41.2444 195.433 41.1865C195.822 41.1204 196.19 41.0873 196.537 41.0873H201.138Z" fill="#001839"/>
<path d="M25.6923 77.8276C25.906 77.6008 26.1427 77.42 26.4024 77.2852C26.6621 77.1504 26.9613 77.083 27.2999 77.083C27.5728 77.083 27.8128 77.129 28.0199 77.2211C28.2303 77.3098 28.4045 77.438 28.5426 77.6057C28.684 77.7701 28.7908 77.969 28.8632 78.2024C28.9355 78.4358 28.9716 78.6939 28.9716 78.9766V82.1573H28.0889V78.9766C28.0889 78.5986 28.0018 78.306 27.8276 78.0988C27.6566 77.8884 27.3953 77.7832 27.0435 77.7832C26.7838 77.7832 26.5405 77.8457 26.3136 77.9706C26.0901 78.0956 25.883 78.2649 25.6923 78.4786V82.1573H24.8096V74.8935H25.6923V77.8276ZM32.4149 77.083C32.7798 77.083 33.1086 77.1438 33.4012 77.2654C33.6937 77.3871 33.9436 77.5597 34.1507 77.7832C34.3578 78.0068 34.5156 78.278 34.6241 78.5969C34.7359 78.9125 34.7918 79.2659 34.7918 79.6572C34.7918 80.0517 34.7359 80.4067 34.6241 80.7223C34.5156 81.0379 34.3578 81.3075 34.1507 81.5311C33.9436 81.7546 33.6937 81.9272 33.4012 82.0489C33.1086 82.1672 32.7798 82.2264 32.4149 82.2264C32.0467 82.2264 31.7146 82.1672 31.4187 82.0489C31.1262 81.9272 30.8763 81.7546 30.6692 81.5311C30.4621 81.3075 30.3026 81.0379 30.1908 80.7223C30.0824 80.4067 30.0281 80.0517 30.0281 79.6572C30.0281 79.2659 30.0824 78.9125 30.1908 78.5969C30.3026 78.278 30.4621 78.0068 30.6692 77.7832C30.8763 77.5597 31.1262 77.3871 31.4187 77.2654C31.7146 77.1438 32.0467 77.083 32.4149 77.083ZM32.4149 81.5409C32.908 81.5409 33.2762 81.3766 33.5195 81.0478C33.7628 80.7157 33.8844 80.2538 33.8844 79.6621C33.8844 79.067 33.7628 78.6035 33.5195 78.2714C33.2762 77.9394 32.908 77.7734 32.4149 77.7734C32.165 77.7734 31.9464 77.8161 31.759 77.9016C31.5749 77.9871 31.4204 78.1104 31.2955 78.2714C31.1738 78.4325 31.0818 78.6314 31.0193 78.8681C30.9601 79.1016 30.9305 79.3662 30.9305 79.6621C30.9305 80.2538 31.0522 80.7157 31.2955 81.0478C31.542 81.3766 31.9152 81.5409 32.4149 81.5409ZM36.7385 78.163C36.8963 77.821 37.0903 77.5548 37.3204 77.3641C37.5506 77.1701 37.8316 77.0731 38.1637 77.0731C38.2689 77.0731 38.3692 77.0846 38.4645 77.1076C38.5631 77.1307 38.6502 77.1668 38.7259 77.2161L38.6618 77.872C38.642 77.9542 38.5927 77.9953 38.5138 77.9953C38.4678 77.9953 38.4004 77.9854 38.3116 77.9657C38.2229 77.946 38.1226 77.9361 38.0108 77.9361C37.853 77.9361 37.7116 77.9591 37.5867 78.0051C37.4651 78.0512 37.3549 78.1202 37.2563 78.2123C37.161 78.301 37.0739 78.4128 36.995 78.5476C36.9193 78.6791 36.8503 78.8303 36.7878 79.0013V82.1573H35.9051V77.1619H36.4081C36.5035 77.1619 36.5692 77.18 36.6054 77.2161C36.6415 77.2523 36.6662 77.3148 36.6793 77.4035L36.7385 78.163ZM42.128 79.9087C41.7236 79.9218 41.3784 79.9547 41.0924 80.0073C40.8096 80.0566 40.5779 80.1223 40.3971 80.2045C40.2195 80.2867 40.0897 80.3837 40.0075 80.4955C39.9286 80.6073 39.8891 80.7322 39.8891 80.8703C39.8891 81.0018 39.9105 81.1152 39.9532 81.2105C39.996 81.3059 40.0535 81.3848 40.1258 81.4472C40.2014 81.5064 40.2886 81.5508 40.3872 81.5804C40.4891 81.6067 40.5976 81.6198 40.7127 81.6198C40.8672 81.6198 41.0085 81.605 41.1368 81.5754C41.265 81.5426 41.385 81.4965 41.4967 81.4374C41.6118 81.3782 41.7203 81.3075 41.8222 81.2253C41.9274 81.1431 42.0293 81.0494 42.128 80.9442V79.9087ZM39.2924 77.8671C39.5686 77.6008 39.8661 77.4019 40.185 77.2704C40.5039 77.1389 40.8573 77.0731 41.2452 77.0731C41.5247 77.0731 41.7729 77.1191 41.9899 77.2112C42.2069 77.3033 42.3893 77.4315 42.5373 77.5958C42.6852 77.7602 42.797 77.9591 42.8726 78.1925C42.9482 78.426 42.986 78.6824 42.986 78.9618V82.1573H42.5964C42.511 82.1573 42.4452 82.1442 42.3992 82.1179C42.3532 82.0883 42.317 82.0324 42.2907 81.9502L42.1921 81.4768C42.0606 81.5985 41.9323 81.707 41.8074 81.8023C41.6825 81.8943 41.551 81.9732 41.4129 82.039C41.2748 82.1015 41.1269 82.1491 40.9691 82.182C40.8146 82.2182 40.642 82.2363 40.4513 82.2363C40.2573 82.2363 40.0749 82.2099 39.9039 82.1573C39.733 82.1015 39.5834 82.0193 39.4552 81.9108C39.3302 81.8023 39.23 81.6659 39.1543 81.5015C39.082 81.3338 39.0459 81.1366 39.0459 80.9097C39.0459 80.7125 39.1001 80.5234 39.2086 80.3426C39.3171 80.1585 39.493 79.9958 39.7362 79.8544C39.9795 79.713 40.2968 79.598 40.688 79.5092C41.0792 79.4172 41.5592 79.3646 42.128 79.3514V78.9618C42.128 78.5739 42.0441 78.2813 41.8765 78.084C41.7088 77.8835 41.4639 77.7832 41.1417 77.7832C40.9247 77.7832 40.7422 77.8112 40.5943 77.8671C40.4497 77.9197 40.3231 77.9805 40.2146 78.0495C40.1094 78.1153 40.0173 78.1761 39.9384 78.232C39.8628 78.2846 39.7872 78.3109 39.7116 78.3109C39.6524 78.3109 39.6015 78.2961 39.5587 78.2665C39.516 78.2336 39.4798 78.1942 39.4502 78.1482L39.2924 77.8671ZM47.2326 77.9854C47.1932 78.0577 47.1323 78.0939 47.0501 78.0939C47.0008 78.0939 46.9449 78.0758 46.8825 78.0397C46.82 78.0035 46.7428 77.9641 46.6507 77.9213C46.5619 77.8753 46.4551 77.8342 46.3302 77.798C46.2052 77.7586 46.0573 77.7389 45.8863 77.7389C45.7384 77.7389 45.6053 77.7586 45.4869 77.798C45.3686 77.8342 45.2666 77.8852 45.1812 77.9509C45.099 78.0167 45.0349 78.0939 44.9888 78.1827C44.9461 78.2682 44.9247 78.3618 44.9247 78.4638C44.9247 78.592 44.9609 78.6988 45.0332 78.7843C45.1088 78.8698 45.2075 78.9437 45.3291 79.0062C45.4507 79.0687 45.5888 79.1246 45.7433 79.1739C45.8978 79.2199 46.0557 79.2709 46.2167 79.3268C46.3811 79.3794 46.5406 79.4385 46.6951 79.5043C46.8496 79.57 46.9877 79.6522 47.1093 79.7508C47.231 79.8495 47.3279 79.9711 47.4003 80.1158C47.4759 80.2571 47.5137 80.4281 47.5137 80.6286C47.5137 80.8588 47.4726 81.0725 47.3904 81.2697C47.3082 81.4637 47.1866 81.633 47.0255 81.7776C46.8644 81.919 46.6671 82.0308 46.4337 82.113C46.2003 82.1952 45.9307 82.2363 45.625 82.2363C45.2765 82.2363 44.9609 82.1804 44.6782 82.0686C44.3954 81.9535 44.1554 81.8072 43.9582 81.6297L44.1653 81.2944C44.1916 81.2516 44.2228 81.2187 44.259 81.1957C44.2952 81.1727 44.3412 81.1612 44.3971 81.1612C44.4563 81.1612 44.5187 81.1842 44.5845 81.2303C44.6502 81.2763 44.7291 81.3272 44.8212 81.3831C44.9165 81.439 45.0316 81.49 45.1664 81.536C45.3012 81.582 45.4688 81.605 45.6694 81.605C45.8403 81.605 45.9899 81.5837 46.1181 81.5409C46.2463 81.4949 46.3532 81.4341 46.4387 81.3585C46.5241 81.2829 46.5866 81.1957 46.626 81.0971C46.6688 80.9985 46.6902 80.8933 46.6902 80.7815C46.6902 80.6434 46.6523 80.53 46.5767 80.4412C46.5044 80.3492 46.4074 80.2719 46.2858 80.2095C46.1641 80.1437 46.0244 80.0878 45.8666 80.0418C45.7121 79.9925 45.5527 79.9415 45.3883 79.8889C45.2272 79.8363 45.0677 79.7771 44.9099 79.7114C44.7554 79.6424 44.6173 79.5569 44.4957 79.455C44.3741 79.3531 44.2754 79.2281 44.1998 79.0802C44.1275 78.929 44.0913 78.7465 44.0913 78.5328C44.0913 78.3421 44.1308 78.1597 44.2097 77.9854C44.2886 77.8079 44.4036 77.6534 44.5549 77.5219C44.7061 77.3871 44.8919 77.2802 45.1121 77.2013C45.3324 77.1224 45.5839 77.083 45.8666 77.083C46.1954 77.083 46.4896 77.1356 46.7493 77.2408C47.0123 77.3427 47.2392 77.4841 47.4299 77.6649L47.2326 77.9854Z" fill="#001839"/>
<path d="M97.7197 82.1573V77.1619H98.2474C98.3723 77.1619 98.4496 77.2227 98.4792 77.3443L98.5433 77.8572C98.7274 77.6304 98.9345 77.4446 99.1646 77.3C99.3948 77.1553 99.661 77.083 99.9635 77.083C100.299 77.083 100.57 77.1767 100.777 77.3641C100.988 77.5515 101.139 77.8046 101.231 78.1235C101.303 77.9427 101.395 77.7865 101.507 77.655C101.622 77.5235 101.75 77.415 101.892 77.3296C102.033 77.2441 102.183 77.1816 102.34 77.1422C102.502 77.1027 102.664 77.083 102.829 77.083C103.092 77.083 103.325 77.1257 103.529 77.2112C103.736 77.2934 103.91 77.415 104.052 77.5761C104.196 77.7372 104.306 77.9361 104.382 78.1728C104.458 78.4062 104.495 78.6742 104.495 78.9766V82.1573H103.613V78.9766C103.613 78.5854 103.527 78.2895 103.356 78.089C103.185 77.8852 102.939 77.7832 102.617 77.7832C102.472 77.7832 102.334 77.8095 102.202 77.8621C102.074 77.9115 101.961 77.9854 101.862 78.084C101.763 78.1827 101.685 78.3076 101.625 78.4588C101.569 78.6068 101.542 78.7794 101.542 78.9766V82.1573H100.659V78.9766C100.659 78.5755 100.578 78.2764 100.417 78.0791C100.256 77.8819 100.021 77.7832 99.712 77.7832C99.495 77.7832 99.2945 77.8424 99.1104 77.9608C98.9263 78.0758 98.757 78.2336 98.6024 78.4342V82.1573H97.7197ZM106.757 77.1619V82.1573H105.879V77.1619H106.757ZM106.944 75.5937C106.944 75.6792 106.926 75.7597 106.89 75.8354C106.857 75.9077 106.811 75.9734 106.752 76.0326C106.696 76.0885 106.628 76.1329 106.549 76.1658C106.474 76.1986 106.393 76.2151 106.308 76.2151C106.222 76.2151 106.142 76.1986 106.066 76.1658C105.994 76.1329 105.93 76.0885 105.874 76.0326C105.818 75.9734 105.774 75.9077 105.741 75.8354C105.708 75.7597 105.691 75.6792 105.691 75.5937C105.691 75.5082 105.708 75.4277 105.741 75.3521C105.774 75.2732 105.818 75.2058 105.874 75.1499C105.93 75.0907 105.994 75.0447 106.066 75.0118C106.142 74.9789 106.222 74.9625 106.308 74.9625C106.393 74.9625 106.474 74.9789 106.549 75.0118C106.628 75.0447 106.696 75.0907 106.752 75.1499C106.811 75.2058 106.857 75.2732 106.89 75.3521C106.926 75.4277 106.944 75.5082 106.944 75.5937ZM109.027 77.8868C109.136 77.7652 109.251 77.655 109.373 77.5564C109.494 77.4578 109.622 77.3739 109.757 77.3049C109.895 77.2326 110.04 77.1783 110.191 77.1422C110.346 77.1027 110.512 77.083 110.689 77.083C110.962 77.083 111.202 77.129 111.409 77.2211C111.62 77.3098 111.794 77.438 111.932 77.6057C112.073 77.7701 112.18 77.969 112.252 78.2024C112.325 78.4358 112.361 78.6939 112.361 78.9766V82.1573H111.478V78.9766C111.478 78.5986 111.391 78.306 111.217 78.0988C111.046 77.8884 110.785 77.7832 110.433 77.7832C110.173 77.7832 109.93 77.8457 109.703 77.9706C109.479 78.0956 109.272 78.2649 109.082 78.4786V82.1573H108.199V77.1619H108.727C108.851 77.1619 108.929 77.2227 108.958 77.3443L109.027 77.8868ZM117.806 77.1619V82.1573H117.284C117.159 82.1573 117.08 82.0965 117.047 81.9749L116.978 81.4374C116.761 81.6774 116.518 81.8713 116.248 82.0193C115.978 82.1639 115.669 82.2363 115.321 82.2363C115.048 82.2363 114.806 82.1919 114.596 82.1031C114.389 82.0111 114.215 81.8828 114.073 81.7185C113.932 81.5541 113.825 81.3552 113.753 81.1218C113.684 80.8883 113.649 80.6303 113.649 80.3475V77.1619H114.527V80.3475C114.527 80.7256 114.612 81.0182 114.783 81.2253C114.958 81.4324 115.222 81.536 115.577 81.536C115.837 81.536 116.079 81.4752 116.302 81.3535C116.529 81.2286 116.738 81.0577 116.929 80.8407V77.1619H117.806ZM120.732 82.2363C120.337 82.2363 120.033 82.1261 119.819 81.9058C119.609 81.6856 119.504 81.3683 119.504 80.9541V77.8967H118.902C118.85 77.8967 118.805 77.8819 118.769 77.8523C118.733 77.8194 118.715 77.7701 118.715 77.7043V77.3542L119.533 77.2507L119.736 75.7071C119.745 75.6578 119.767 75.6184 119.8 75.5888C119.836 75.5559 119.882 75.5395 119.938 75.5395H120.382V77.2605H121.827V77.8967H120.382V80.8949C120.382 81.1053 120.433 81.2615 120.534 81.3634C120.636 81.4653 120.768 81.5163 120.929 81.5163C121.021 81.5163 121.1 81.5048 121.166 81.4818C121.235 81.4555 121.294 81.4275 121.343 81.3979C121.393 81.3683 121.434 81.342 121.467 81.319C121.503 81.2927 121.534 81.2796 121.56 81.2796C121.606 81.2796 121.647 81.3075 121.683 81.3634L121.94 81.7826C121.789 81.9239 121.606 82.0357 121.393 82.1179C121.179 82.1968 120.959 82.2363 120.732 82.2363ZM124.81 77.083C125.175 77.083 125.503 77.1438 125.796 77.2654C126.089 77.3871 126.338 77.5597 126.546 77.7832C126.753 78.0068 126.91 78.278 127.019 78.5969C127.131 78.9125 127.187 79.2659 127.187 79.6572C127.187 80.0517 127.131 80.4067 127.019 80.7223C126.91 81.0379 126.753 81.3075 126.546 81.5311C126.338 81.7546 126.089 81.9272 125.796 82.0489C125.503 82.1672 125.175 82.2264 124.81 82.2264C124.441 82.2264 124.109 82.1672 123.814 82.0489C123.521 81.9272 123.271 81.7546 123.064 81.5311C122.857 81.3075 122.697 81.0379 122.586 80.7223C122.477 80.4067 122.423 80.0517 122.423 79.6572C122.423 79.2659 122.477 78.9125 122.586 78.5969C122.697 78.278 122.857 78.0068 123.064 77.7832C123.271 77.5597 123.521 77.3871 123.814 77.2654C124.109 77.1438 124.441 77.083 124.81 77.083ZM124.81 81.5409C125.303 81.5409 125.671 81.3766 125.914 81.0478C126.158 80.7157 126.279 80.2538 126.279 79.6621C126.279 79.067 126.158 78.6035 125.914 78.2714C125.671 77.9394 125.303 77.7734 124.81 77.7734C124.56 77.7734 124.341 77.8161 124.154 77.9016C123.97 77.9871 123.815 78.1104 123.69 78.2714C123.569 78.4325 123.477 78.6314 123.414 78.8681C123.355 79.1016 123.325 79.3662 123.325 79.6621C123.325 80.2538 123.447 80.7157 123.69 81.0478C123.937 81.3766 124.31 81.5409 124.81 81.5409ZM131.209 77.9854C131.17 78.0577 131.109 78.0939 131.027 78.0939C130.978 78.0939 130.922 78.0758 130.859 78.0397C130.797 78.0035 130.72 77.9641 130.628 77.9213C130.539 77.8753 130.432 77.8342 130.307 77.798C130.182 77.7586 130.034 77.7389 129.863 77.7389C129.715 77.7389 129.582 77.7586 129.464 77.798C129.345 77.8342 129.243 77.8852 129.158 77.9509C129.076 78.0167 129.012 78.0939 128.966 78.1827C128.923 78.2682 128.902 78.3618 128.902 78.4638C128.902 78.592 128.938 78.6988 129.01 78.7843C129.086 78.8698 129.184 78.9437 129.306 79.0062C129.428 79.0687 129.566 79.1246 129.72 79.1739C129.875 79.2199 130.032 79.2709 130.194 79.3268C130.358 79.3794 130.517 79.4385 130.672 79.5043C130.826 79.57 130.964 79.6522 131.086 79.7508C131.208 79.8495 131.305 79.9711 131.377 80.1158C131.453 80.2571 131.49 80.4281 131.49 80.6286C131.49 80.8588 131.449 81.0725 131.367 81.2697C131.285 81.4637 131.163 81.633 131.002 81.7776C130.841 81.919 130.644 82.0308 130.411 82.113C130.177 82.1952 129.908 82.2363 129.602 82.2363C129.253 82.2363 128.938 82.1804 128.655 82.0686C128.372 81.9535 128.132 81.8072 127.935 81.6297L128.142 81.2944C128.168 81.2516 128.2 81.2187 128.236 81.1957C128.272 81.1727 128.318 81.1612 128.374 81.1612C128.433 81.1612 128.496 81.1842 128.561 81.2303C128.627 81.2763 128.706 81.3272 128.798 81.3831C128.893 81.439 129.008 81.49 129.143 81.536C129.278 81.582 129.446 81.605 129.646 81.605C129.817 81.605 129.967 81.5837 130.095 81.5409C130.223 81.4949 130.33 81.4341 130.415 81.3585C130.501 81.2829 130.563 81.1957 130.603 81.0971C130.646 80.9985 130.667 80.8933 130.667 80.7815C130.667 80.6434 130.629 80.53 130.554 80.4412C130.481 80.3492 130.384 80.2719 130.263 80.2095C130.141 80.1437 130.001 80.0878 129.843 80.0418C129.689 79.9925 129.529 79.9415 129.365 79.8889C129.204 79.8363 129.045 79.7771 128.887 79.7114C128.732 79.6424 128.594 79.5569 128.473 79.455C128.351 79.3531 128.252 79.2281 128.177 79.0802C128.104 78.929 128.068 78.7465 128.068 78.5328C128.068 78.3421 128.108 78.1597 128.186 77.9854C128.265 77.8079 128.38 77.6534 128.532 77.5219C128.683 77.3871 128.869 77.2802 129.089 77.2013C129.309 77.1224 129.561 77.083 129.843 77.083C130.172 77.083 130.466 77.1356 130.726 77.2408C130.989 77.3427 131.216 77.4841 131.407 77.6649L131.209 77.9854Z" fill="#001839"/>
<path d="M174.589 77.9854C174.549 78.0577 174.488 78.0939 174.406 78.0939C174.357 78.0939 174.301 78.0758 174.239 78.0397C174.176 78.0035 174.099 77.9641 174.007 77.9213C173.918 77.8753 173.811 77.8342 173.686 77.798C173.561 77.7586 173.413 77.7389 173.242 77.7389C173.095 77.7389 172.961 77.7586 172.843 77.798C172.725 77.8342 172.623 77.8852 172.537 77.9509C172.455 78.0167 172.391 78.0939 172.345 78.1827C172.302 78.2682 172.281 78.3618 172.281 78.4638C172.281 78.592 172.317 78.6988 172.389 78.7843C172.465 78.8698 172.564 78.9437 172.685 79.0062C172.807 79.0687 172.945 79.1246 173.099 79.1739C173.254 79.2199 173.412 79.2709 173.573 79.3268C173.737 79.3794 173.897 79.4385 174.051 79.5043C174.206 79.57 174.344 79.6522 174.465 79.7508C174.587 79.8495 174.684 79.9711 174.756 80.1158C174.832 80.2571 174.87 80.4281 174.87 80.6286C174.87 80.8588 174.829 81.0725 174.747 81.2697C174.664 81.4637 174.543 81.633 174.382 81.7776C174.22 81.919 174.023 82.0308 173.79 82.113C173.556 82.1952 173.287 82.2363 172.981 82.2363C172.633 82.2363 172.317 82.1804 172.034 82.0686C171.752 81.9535 171.512 81.8072 171.314 81.6297L171.521 81.2944C171.548 81.2516 171.579 81.2187 171.615 81.1957C171.651 81.1727 171.697 81.1612 171.753 81.1612C171.812 81.1612 171.875 81.1842 171.941 81.2303C172.006 81.2763 172.085 81.3272 172.177 81.3831C172.273 81.439 172.388 81.49 172.522 81.536C172.657 81.582 172.825 81.605 173.025 81.605C173.196 81.605 173.346 81.5837 173.474 81.5409C173.602 81.4949 173.709 81.4341 173.795 81.3585C173.88 81.2829 173.943 81.1957 173.982 81.0971C174.025 80.9985 174.046 80.8933 174.046 80.7815C174.046 80.6434 174.008 80.53 173.933 80.4412C173.861 80.3492 173.764 80.2719 173.642 80.2095C173.52 80.1437 173.381 80.0878 173.223 80.0418C173.068 79.9925 172.909 79.9415 172.744 79.8889C172.583 79.8363 172.424 79.7771 172.266 79.7114C172.112 79.6424 171.973 79.5569 171.852 79.455C171.73 79.3531 171.632 79.2281 171.556 79.0802C171.484 78.929 171.447 78.7465 171.447 78.5328C171.447 78.3421 171.487 78.1597 171.566 77.9854C171.645 77.8079 171.76 77.6534 171.911 77.5219C172.062 77.3871 172.248 77.2802 172.468 77.2013C172.688 77.1224 172.94 77.083 173.223 77.083C173.551 77.083 173.846 77.1356 174.105 77.2408C174.368 77.3427 174.595 77.4841 174.786 77.6649L174.589 77.9854ZM179.289 79.1147C179.289 78.9109 179.26 78.7251 179.201 78.5575C179.145 78.3865 179.061 78.2402 178.949 78.1186C178.841 77.9936 178.708 77.8983 178.55 77.8326C178.392 77.7635 178.213 77.729 178.012 77.729C177.591 77.729 177.258 77.8523 177.011 78.0988C176.768 78.3421 176.617 78.6807 176.557 79.1147H179.289ZM180 81.4571C179.891 81.5886 179.761 81.7037 179.61 81.8023C179.459 81.8976 179.296 81.9765 179.122 82.039C178.951 82.1015 178.773 82.1475 178.589 82.1771C178.405 82.2099 178.223 82.2264 178.042 82.2264C177.697 82.2264 177.378 82.1689 177.085 82.0538C176.796 81.9354 176.544 81.7645 176.331 81.5409C176.12 81.3141 175.956 81.0346 175.837 80.7026C175.719 80.3706 175.66 79.9892 175.66 79.5585C175.66 79.21 175.713 78.8846 175.818 78.5821C175.926 78.2797 176.081 78.0183 176.281 77.798C176.482 77.5745 176.727 77.4002 177.016 77.2753C177.305 77.1471 177.631 77.083 177.992 77.083C178.292 77.083 178.568 77.1339 178.821 77.2359C179.077 77.3345 179.298 77.4791 179.482 77.6698C179.669 77.8572 179.815 78.0906 179.921 78.3701C180.026 78.6462 180.078 78.9618 180.078 79.3169C180.078 79.455 180.064 79.547 180.034 79.593C180.004 79.6391 179.949 79.6621 179.866 79.6621H176.528C176.538 79.9777 176.58 80.2522 176.656 80.4856C176.735 80.719 176.843 80.9146 176.982 81.0725C177.12 81.227 177.284 81.3437 177.475 81.4226C177.665 81.4982 177.879 81.536 178.116 81.536C178.336 81.536 178.525 81.5113 178.683 81.462C178.844 81.4094 178.982 81.3535 179.097 81.2944C179.212 81.2352 179.308 81.1809 179.383 81.1316C179.462 81.079 179.529 81.0527 179.585 81.0527C179.658 81.0527 179.714 81.0807 179.753 81.1366L180 81.4571ZM182.897 79.7163C183.075 79.7163 183.231 79.6917 183.366 79.6424C183.501 79.593 183.614 79.524 183.706 79.4352C183.798 79.3465 183.867 79.2413 183.913 79.1196C183.959 78.9947 183.982 78.8583 183.982 78.7103C183.982 78.4046 183.889 78.1613 183.701 77.9805C183.517 77.7997 183.249 77.7093 182.897 77.7093C182.542 77.7093 182.271 77.7997 182.084 77.9805C181.9 78.1613 181.808 78.4046 181.808 78.7103C181.808 78.8583 181.831 78.9947 181.877 79.1196C181.926 79.2413 181.997 79.3465 182.089 79.4352C182.181 79.524 182.294 79.593 182.429 79.6424C182.564 79.6917 182.72 79.7163 182.897 79.7163ZM184.48 82.4286C184.48 82.3069 184.446 82.2083 184.377 82.1327C184.308 82.0571 184.214 81.9979 184.096 81.9552C183.981 81.9124 183.846 81.8828 183.691 81.8664C183.537 81.8467 183.372 81.8319 183.198 81.822C183.027 81.8122 182.853 81.8023 182.676 81.7924C182.498 81.7826 182.327 81.7661 182.163 81.7431C181.979 81.8286 181.827 81.9371 181.709 82.0686C181.594 82.1968 181.536 82.348 181.536 82.5223C181.536 82.634 181.564 82.7376 181.62 82.8329C181.679 82.9316 181.768 83.0154 181.886 83.0844C182.005 83.1568 182.153 83.2127 182.33 83.2521C182.511 83.2948 182.723 83.3162 182.966 83.3162C183.203 83.3162 183.415 83.2948 183.603 83.2521C183.79 83.2094 183.948 83.1486 184.076 83.0696C184.208 82.9907 184.308 82.8971 184.377 82.7886C184.446 82.6801 184.48 82.5601 184.48 82.4286ZM185.373 77.3591V77.6846C185.373 77.7931 185.304 77.8621 185.166 77.8917L184.599 77.9657C184.711 78.1827 184.766 78.4227 184.766 78.6857C184.766 78.929 184.719 79.1509 184.623 79.3514C184.531 79.5487 184.403 79.718 184.239 79.8593C184.074 80.0007 183.877 80.1092 183.647 80.1848C183.417 80.2604 183.167 80.2982 182.897 80.2982C182.664 80.2982 182.444 80.2703 182.237 80.2144C182.131 80.2801 182.051 80.3508 181.995 80.4264C181.939 80.4988 181.911 80.5727 181.911 80.6484C181.911 80.7667 181.959 80.8571 182.054 80.9196C182.153 80.9788 182.281 81.0215 182.439 81.0478C182.597 81.0741 182.776 81.0905 182.976 81.0971C183.18 81.1037 183.387 81.1152 183.598 81.1316C183.811 81.1448 184.018 81.1694 184.219 81.2056C184.423 81.2418 184.604 81.3009 184.761 81.3831C184.919 81.4653 185.046 81.5787 185.141 81.7234C185.24 81.868 185.289 82.0554 185.289 82.2856C185.289 82.4993 185.235 82.7064 185.126 82.9069C185.021 83.1075 184.868 83.285 184.668 83.4395C184.467 83.5973 184.221 83.7222 183.928 83.8143C183.639 83.9096 183.312 83.9573 182.947 83.9573C182.582 83.9573 182.263 83.9211 181.99 83.8488C181.717 83.7765 181.49 83.6795 181.31 83.5579C181.129 83.4362 180.992 83.2948 180.9 83.1338C180.811 82.976 180.767 82.8099 180.767 82.6357C180.767 82.3891 180.844 82.1804 180.999 82.0094C181.153 81.8385 181.365 81.702 181.635 81.6001C181.487 81.5344 181.369 81.4472 181.28 81.3387C181.194 81.227 181.152 81.0774 181.152 80.89C181.152 80.8177 181.165 80.7437 181.191 80.6681C181.217 80.5892 181.257 80.5119 181.31 80.4363C181.365 80.3574 181.433 80.2834 181.512 80.2144C181.591 80.1454 181.683 80.0845 181.788 80.0319C181.541 79.8939 181.349 79.7114 181.211 79.4846C181.073 79.2544 181.004 78.9881 181.004 78.6857C181.004 78.4424 181.05 78.2221 181.142 78.0249C181.237 77.8243 181.369 77.655 181.536 77.5169C181.704 77.3756 181.903 77.2671 182.133 77.1915C182.366 77.1159 182.621 77.0781 182.897 77.0781C183.114 77.0781 183.317 77.1027 183.504 77.152C183.691 77.198 183.862 77.2671 184.017 77.3591H185.373ZM190.388 77.1619V82.1573H189.866C189.741 82.1573 189.662 82.0965 189.629 81.9749L189.56 81.4374C189.343 81.6774 189.1 81.8713 188.83 82.0193C188.561 82.1639 188.252 82.2363 187.903 82.2363C187.63 82.2363 187.389 82.1919 187.178 82.1031C186.971 82.0111 186.797 81.8828 186.655 81.7185C186.514 81.5541 186.407 81.3552 186.335 81.1218C186.266 80.8883 186.231 80.6303 186.231 80.3475V77.1619H187.109V80.3475C187.109 80.7256 187.195 81.0182 187.366 81.2253C187.54 81.4324 187.804 81.536 188.159 81.536C188.419 81.536 188.661 81.4752 188.884 81.3535C189.111 81.2286 189.32 81.0577 189.511 80.8407V77.1619H190.388ZM192.609 77.8868C192.717 77.7652 192.832 77.655 192.954 77.5564C193.076 77.4578 193.204 77.3739 193.339 77.3049C193.477 77.2326 193.621 77.1783 193.773 77.1422C193.927 77.1027 194.093 77.083 194.271 77.083C194.543 77.083 194.783 77.129 194.991 77.2211C195.201 77.3098 195.375 77.438 195.513 77.6057C195.655 77.7701 195.762 77.969 195.834 78.2024C195.906 78.4358 195.942 78.6939 195.942 78.9766V82.1573H195.06V78.9766C195.06 78.5986 194.972 78.306 194.798 78.0988C194.627 77.8884 194.366 77.7832 194.014 77.7832C193.754 77.7832 193.511 77.8457 193.284 77.9706C193.061 78.0956 192.854 78.2649 192.663 78.4786V82.1573H191.78V77.1619H192.308C192.433 77.1619 192.51 77.2227 192.54 77.3443L192.609 77.8868ZM200.535 78.3503C200.37 78.1301 200.193 77.9772 200.002 77.8917C199.811 77.803 199.598 77.7586 199.361 77.7586C198.897 77.7586 198.541 77.9246 198.291 78.2566C198.041 78.5887 197.916 79.0621 197.916 79.6769C197.916 80.0023 197.944 80.2818 198 80.5152C198.056 80.7453 198.138 80.936 198.246 81.0872C198.355 81.2352 198.488 81.3437 198.646 81.4127C198.804 81.4818 198.983 81.5163 199.183 81.5163C199.473 81.5163 199.724 81.4505 199.938 81.319C200.155 81.1875 200.354 81.0018 200.535 80.7618V78.3503ZM201.412 74.8935V82.1573H200.89C200.765 82.1573 200.686 82.0965 200.653 81.9749L200.574 81.3683C200.36 81.6248 200.117 81.8319 199.844 81.9897C199.571 82.1475 199.256 82.2264 198.897 82.2264C198.611 82.2264 198.352 82.1721 198.118 82.0637C197.885 81.9519 197.686 81.7891 197.522 81.5754C197.357 81.3618 197.231 81.0955 197.142 80.7766C197.053 80.4577 197.009 80.0911 197.009 79.6769C197.009 79.3087 197.058 78.9668 197.157 78.6512C197.255 78.3323 197.397 78.0561 197.581 77.8227C197.765 77.5893 197.99 77.4068 198.256 77.2753C198.526 77.1405 198.828 77.0731 199.164 77.0731C199.469 77.0731 199.731 77.1257 199.948 77.2309C200.168 77.3328 200.364 77.4758 200.535 77.66V74.8935H201.412ZM204.904 77.083C205.269 77.083 205.598 77.1438 205.891 77.2654C206.183 77.3871 206.433 77.5597 206.64 77.7832C206.847 78.0068 207.005 78.278 207.114 78.5969C207.225 78.9125 207.281 79.2659 207.281 79.6572C207.281 80.0517 207.225 80.4067 207.114 80.7223C207.005 81.0379 206.847 81.3075 206.64 81.5311C206.433 81.7546 206.183 81.9272 205.891 82.0489C205.598 82.1672 205.269 82.2264 204.904 82.2264C204.536 82.2264 204.204 82.1672 203.908 82.0489C203.616 81.9272 203.366 81.7546 203.159 81.5311C202.952 81.3075 202.792 81.0379 202.68 80.7223C202.572 80.4067 202.518 80.0517 202.518 79.6572C202.518 79.2659 202.572 78.9125 202.68 78.5969C202.792 78.278 202.952 78.0068 203.159 77.7832C203.366 77.5597 203.616 77.3871 203.908 77.2654C204.204 77.1438 204.536 77.083 204.904 77.083ZM204.904 81.5409C205.398 81.5409 205.766 81.3766 206.009 81.0478C206.252 80.7157 206.374 80.2538 206.374 79.6621C206.374 79.067 206.252 78.6035 206.009 78.2714C205.766 77.9394 205.398 77.7734 204.904 77.7734C204.655 77.7734 204.436 77.8161 204.249 77.9016C204.064 77.9871 203.91 78.1104 203.785 78.2714C203.663 78.4325 203.571 78.6314 203.509 78.8681C203.45 79.1016 203.42 79.3662 203.42 79.6621C203.42 80.2538 203.542 80.7157 203.785 81.0478C204.032 81.3766 204.405 81.5409 204.904 81.5409ZM211.304 77.9854C211.265 78.0577 211.204 78.0939 211.122 78.0939C211.072 78.0939 211.017 78.0758 210.954 78.0397C210.892 78.0035 210.814 77.9641 210.722 77.9213C210.634 77.8753 210.527 77.8342 210.402 77.798C210.277 77.7586 210.129 77.7389 209.958 77.7389C209.81 77.7389 209.677 77.7586 209.558 77.798C209.44 77.8342 209.338 77.8852 209.253 77.9509C209.171 78.0167 209.106 78.0939 209.06 78.1827C209.018 78.2682 208.996 78.3618 208.996 78.4638C208.996 78.592 209.032 78.6988 209.105 78.7843C209.18 78.8698 209.279 78.9437 209.401 79.0062C209.522 79.0687 209.66 79.1246 209.815 79.1739C209.969 79.2199 210.127 79.2709 210.288 79.3268C210.453 79.3794 210.612 79.4385 210.767 79.5043C210.921 79.57 211.059 79.6522 211.181 79.7508C211.303 79.8495 211.4 79.9711 211.472 80.1158C211.547 80.2571 211.585 80.4281 211.585 80.6286C211.585 80.8588 211.544 81.0725 211.462 81.2697C211.38 81.4637 211.258 81.633 211.097 81.7776C210.936 81.919 210.739 82.0308 210.505 82.113C210.272 82.1952 210.002 82.2363 209.697 82.2363C209.348 82.2363 209.032 82.1804 208.75 82.0686C208.467 81.9535 208.227 81.8072 208.03 81.6297L208.237 81.2944C208.263 81.2516 208.294 81.2187 208.331 81.1957C208.367 81.1727 208.413 81.1612 208.469 81.1612C208.528 81.1612 208.59 81.1842 208.656 81.2303C208.722 81.2763 208.801 81.3272 208.893 81.3831C208.988 81.439 209.103 81.49 209.238 81.536C209.373 81.582 209.54 81.605 209.741 81.605C209.912 81.605 210.061 81.5837 210.19 81.5409C210.318 81.4949 210.425 81.4341 210.51 81.3585C210.596 81.2829 210.658 81.1957 210.698 81.0971C210.74 80.9985 210.762 80.8933 210.762 80.7815C210.762 80.6434 210.724 80.53 210.648 80.4412C210.576 80.3492 210.479 80.2719 210.357 80.2095C210.236 80.1437 210.096 80.0878 209.938 80.0418C209.784 79.9925 209.624 79.9415 209.46 79.8889C209.299 79.8363 209.139 79.7771 208.982 79.7114C208.827 79.6424 208.689 79.5569 208.567 79.455C208.446 79.3531 208.347 79.2281 208.271 79.0802C208.199 78.929 208.163 78.7465 208.163 78.5328C208.163 78.3421 208.202 78.1597 208.281 77.9854C208.36 77.8079 208.475 77.6534 208.626 77.5219C208.778 77.3871 208.963 77.2802 209.184 77.2013C209.404 77.1224 209.655 77.083 209.938 77.083C210.267 77.083 210.561 77.1356 210.821 77.2408C211.084 77.3427 211.311 77.4841 211.501 77.6649L211.304 77.9854Z" fill="#001839"/>
</svg>
